<svg width="219" height="46" viewBox="0 0 219 46" fill="none" xmlns="http://www.w3.org/2000/svg">
<path d="M6.25841 0.199997H30.5784V5.768L28.4024 11.464H14.6424V33.8H30.5784V45H6.25841C2.93041 45 0.626406 42.696 0.626406 39.432V5.768C0.626406 2.504 2.93041 0.199997 6.25841 0.199997ZM45.1389 23.42C43.7522 23.42 43.0589 24.1133 43.0589 25.5V28.36H51.8989V25.5C51.8989 24.1133 51.2056 23.42 49.8189 23.42H45.1389ZM59.9589 44.48C53.2682 45.1733 47.2016 45.52 41.7589 45.52C39.4016 45.52 37.5122 44.8093 36.0909 43.388C34.6696 41.9667 33.9589 40.0773 33.9589 37.72V25.24C33.9589 22.64 34.6869 20.612 36.1429 19.156C37.6336 17.6653 39.6789 16.92 42.2789 16.92H52.6789C55.2789 16.92 57.3069 17.6653 58.7629 19.156C60.2536 20.612 60.9989 22.64 60.9989 25.24V34.86H43.0589V36.94C43.0589 37.46 43.2322 37.8933 43.5789 38.24C43.9256 38.5867 44.3589 38.76 44.8789 38.76C48.3109 38.76 53.3376 38.5 59.9589 37.98V44.48ZM64.3386 45V33.544L79.4426 13V11.464H66.5146L64.3386 5.768V0.199997H95.4426V11.72L80.2746 32.264V33.8H96.0186V45H64.3386ZM113.885 11.464V19.848H119.453V11.464H113.885ZM127.837 31.048H113.885V45H99.8686V0.199997H127.837C131.165 0.199997 133.469 2.504 133.469 5.768V25.416C133.469 28.68 131.165 31.048 127.837 31.048ZM167.883 45H137.931V0.199997H167.883V5.768L165.643 11.464H151.883V16.456H165.643V27.656H151.883V33.8H167.883V45ZM188.704 45L185.248 23.496H184.16V45H170.464V39.432L175.072 0.199997H190.688L194.08 17.864H195.04L198.432 0.199997H214.112L218.656 39.432V45H205.024V23.496H203.872L200.416 45H188.704Z" fill="white"/>
</svg>
