<svg width="255" height="95" viewBox="0 0 255 95" fill="none" xmlns="http://www.w3.org/2000/svg">
<path d="M121.163 3C-86.1197 32.6204 18.9395 97.5366 135.877 92.0139C270.849 85.6388 343.163 0.879691 36.8666 6.77181" stroke="#D81843" stroke-width="5" stroke-linecap="round" stroke-linejoin="round"/>
<path d="M21.2584 25.2H45.5784V30.768L43.4024 36.464H29.6424V58.8H45.5784V70H21.2584C17.9304 70 15.6264 67.696 15.6264 64.432V30.768C15.6264 27.504 17.9304 25.2 21.2584 25.2ZM60.1389 48.42C58.7522 48.42 58.0589 49.1133 58.0589 50.5V53.36H66.8989V50.5C66.8989 49.1133 66.2056 48.42 64.8189 48.42H60.1389ZM74.9589 69.48C68.2682 70.1733 62.2016 70.52 56.7589 70.52C54.4016 70.52 52.5122 69.8093 51.0909 68.388C49.6696 66.9667 48.9589 65.0773 48.9589 62.72V50.24C48.9589 47.64 49.6869 45.612 51.1429 44.156C52.6336 42.6653 54.6789 41.92 57.2789 41.92H67.6789C70.2789 41.92 72.3069 42.6653 73.7629 44.156C75.2536 45.612 75.9989 47.64 75.9989 50.24V59.86H58.0589V61.94C58.0589 62.46 58.2322 62.8933 58.5789 63.24C58.9256 63.5867 59.3589 63.76 59.8789 63.76C63.3109 63.76 68.3376 63.5 74.9589 62.98V69.48ZM79.3386 70V58.544L94.4426 38V36.464H81.5146L79.3386 30.768V25.2H110.443V36.72L95.2746 57.264V58.8H111.019V70H79.3386ZM128.885 36.464V44.848H134.453V36.464H128.885ZM142.837 56.048H128.885V70H114.869V25.2H142.837C146.165 25.2 148.469 27.504 148.469 30.768V50.416C148.469 53.68 146.165 56.048 142.837 56.048ZM182.883 70H152.931V25.2H182.883V30.768L180.643 36.464H166.883V41.456H180.643V52.656H166.883V58.8H182.883V70ZM203.704 70L200.248 48.496H199.16V70H185.464V64.432L190.072 25.2H205.688L209.08 42.864H210.04L213.432 25.2H229.112L233.656 64.432V70H220.024V48.496H218.872L215.416 70H203.704Z" fill="white"/>
</svg>
