<svg width="29" height="33" viewBox="0 0 29 33" fill="none" xmlns="http://www.w3.org/2000/svg">
<path d="M21.841 2.55897C19.5272 1.00915 16.8408 0.128975 14.0709 0.0131249C11.301 -0.102726 8.5524 0.550133 6.12076 1.90147L6.43787 2.22335L10.744 6.5903L14.3048 10.2046L17.3821 7.08097C19.5671 8.14268 21.2477 10.041 22.0551 12.3593C22.8623 14.6775 22.7305 17.2262 21.6883 19.4458L17.3821 15.0749L9.50748 7.08097L9.13913 6.70708L5.19939 2.71402L5.04663 2.55897C4.25624 3.0924 3.51635 3.69919 2.83651 4.3715C2.78334 4.42253 2.73113 4.46963 2.67989 4.52557C1.34368 5.88147 0.454385 7.62445 0.134422 9.51456C-0.185542 11.4046 0.0795587 13.349 0.89323 15.0799L4.83104 11.0829L5.19939 11.4558L9.13719 15.4537L13.0759 19.4507L13.4443 19.8246L15.5983 22.0101L17.3831 23.8226C17.2796 23.8726 17.1762 23.9207 17.0718 23.9668C15.391 24.7057 13.5301 24.9141 11.7311 24.5652C9.93198 24.2162 8.27803 23.3259 6.98411 22.0101L5.19939 20.1985L4.83104 19.8246L2.67796 22.0101C1.34095 23.3655 0.451256 25.1086 0.131589 26.9991C-0.188078 28.8894 0.0780386 30.834 0.89323 32.5643L5.0505 28.3446C8.41976 30.6051 12.5357 31.4145 16.4929 30.5948C20.4502 29.775 23.9245 27.3931 26.1515 23.9732C28.3787 20.5534 29.1761 16.3755 28.3684 12.3588C27.5607 8.34211 25.2142 4.81559 21.8449 2.55504" fill="url(#paint0_linear_7_197)"/>
<defs>
<linearGradient id="paint0_linear_7_197" x1="14.0834" y1="2.12031" x2="14.4649" y2="31.2149" gradientUnits="userSpaceOnUse">
<stop stop-color="#FA5901"/>
<stop offset="1" stop-color="#EB005C"/>
</linearGradient>
</defs>
</svg>
