<svg width="221" height="48" viewBox="0 0 221 48" fill="none" xmlns="http://www.w3.org/2000/svg">
<mask id="path-1-outside-1_2213_53" maskUnits="userSpaceOnUse" x="0" y="0" width="221" height="48" fill="black">
<rect fill="white" width="221" height="48"/>
<path d="M7.192 1.2H31.512V6.768L29.336 12.464H15.576V34.8H31.512V46H7.192C3.864 46 1.56 43.696 1.56 40.432V6.768C1.56 3.504 3.864 1.2 7.192 1.2ZM46.0725 24.42C44.6858 24.42 43.9925 25.1133 43.9925 26.5V29.36H52.8325V26.5C52.8325 25.1133 52.1392 24.42 50.7525 24.42H46.0725ZM60.8925 45.48C54.2018 46.1733 48.1352 46.52 42.6925 46.52C40.3352 46.52 38.4458 45.8093 37.0245 44.388C35.6032 42.9667 34.8925 41.0773 34.8925 38.72V26.24C34.8925 23.64 35.6205 21.612 37.0765 20.156C38.5672 18.6653 40.6125 17.92 43.2125 17.92H53.6125C56.2125 17.92 58.2405 18.6653 59.6965 20.156C61.1872 21.612 61.9325 23.64 61.9325 26.24V35.86H43.9925V37.94C43.9925 38.46 44.1658 38.8933 44.5125 39.24C44.8592 39.5867 45.2925 39.76 45.8125 39.76C49.2445 39.76 54.2712 39.5 60.8925 38.98V45.48ZM65.2722 46V34.544L80.3762 14V12.464H67.4482L65.2722 6.768V1.2H96.3762V12.72L81.2082 33.264V34.8H96.9522V46H65.2722ZM114.818 12.464V20.848H120.386V12.464H114.818ZM128.77 32.048H114.818V46H100.802V1.2H128.77C132.098 1.2 134.402 3.504 134.402 6.768V26.416C134.402 29.68 132.098 32.048 128.77 32.048ZM168.817 46H138.865V1.2H168.817V6.768L166.577 12.464H152.817V17.456H166.577V28.656H152.817V34.8H168.817V46ZM189.637 46L186.181 24.496H185.093V46H171.397V40.432L176.005 1.2H191.621L195.013 18.864H195.973L199.365 1.2H215.045L219.589 40.432V46H205.957V24.496H204.805L201.349 46H189.637Z"/>
</mask>
<path d="M7.192 1.2H31.512V6.768L29.336 12.464H15.576V34.8H31.512V46H7.192C3.864 46 1.56 43.696 1.56 40.432V6.768C1.56 3.504 3.864 1.2 7.192 1.2ZM46.0725 24.42C44.6858 24.42 43.9925 25.1133 43.9925 26.5V29.36H52.8325V26.5C52.8325 25.1133 52.1392 24.42 50.7525 24.42H46.0725ZM60.8925 45.48C54.2018 46.1733 48.1352 46.52 42.6925 46.52C40.3352 46.52 38.4458 45.8093 37.0245 44.388C35.6032 42.9667 34.8925 41.0773 34.8925 38.72V26.24C34.8925 23.64 35.6205 21.612 37.0765 20.156C38.5672 18.6653 40.6125 17.92 43.2125 17.92H53.6125C56.2125 17.92 58.2405 18.6653 59.6965 20.156C61.1872 21.612 61.9325 23.64 61.9325 26.24V35.86H43.9925V37.94C43.9925 38.46 44.1658 38.8933 44.5125 39.24C44.8592 39.5867 45.2925 39.76 45.8125 39.76C49.2445 39.76 54.2712 39.5 60.8925 38.98V45.48ZM65.2722 46V34.544L80.3762 14V12.464H67.4482L65.2722 6.768V1.2H96.3762V12.72L81.2082 33.264V34.8H96.9522V46H65.2722ZM114.818 12.464V20.848H120.386V12.464H114.818ZM128.77 32.048H114.818V46H100.802V1.2H128.77C132.098 1.2 134.402 3.504 134.402 6.768V26.416C134.402 29.68 132.098 32.048 128.77 32.048ZM168.817 46H138.865V1.2H168.817V6.768L166.577 12.464H152.817V17.456H166.577V28.656H152.817V34.8H168.817V46ZM189.637 46L186.181 24.496H185.093V46H171.397V40.432L176.005 1.2H191.621L195.013 18.864H195.973L199.365 1.2H215.045L219.589 40.432V46H205.957V24.496H204.805L201.349 46H189.637Z" fill="white"/>
<path d="M31.512 1.2H32.512V0.199997H31.512V1.2ZM31.512 6.768L32.4462 7.12487L32.512 6.95251V6.768H31.512ZM29.336 12.464V13.464H30.0245L30.2702 12.8209L29.336 12.464ZM15.576 12.464V11.464H14.576V12.464H15.576ZM15.576 34.8H14.576V35.8H15.576V34.8ZM31.512 34.8H32.512V33.8H31.512V34.8ZM31.512 46V47H32.512V46H31.512ZM7.192 2.2H31.512V0.199997H7.192V2.2ZM30.512 1.2V6.768H32.512V1.2H30.512ZM30.5778 6.41113L28.4018 12.1071L30.2702 12.8209L32.4462 7.12487L30.5778 6.41113ZM29.336 11.464H15.576V13.464H29.336V11.464ZM14.576 12.464V34.8H16.576V12.464H14.576ZM15.576 35.8H31.512V33.8H15.576V35.8ZM30.512 34.8V46H32.512V34.8H30.512ZM31.512 45H7.192V47H31.512V45ZM7.192 45C5.76452 45 4.61841 44.5099 3.83224 43.73C3.04638 42.9505 2.56 41.8221 2.56 40.432H0.56C0.56 42.3059 1.22562 43.9615 2.42376 45.15C3.62159 46.3381 5.29148 47 7.192 47V45ZM2.56 40.432V6.768H0.56V40.432H2.56ZM2.56 6.768C2.56 5.3779 3.04638 4.24948 3.83224 3.46996C4.61841 2.69013 5.76452 2.2 7.192 2.2V0.199997C5.29148 0.199997 3.62159 0.861868 2.42376 2.05003C1.22562 3.23852 0.56 4.89409 0.56 6.768H2.56ZM43.9925 29.36H42.9925V30.36H43.9925V29.36ZM52.8325 29.36V30.36H53.8325V29.36H52.8325ZM60.8925 45.48L60.9956 46.4747L61.8925 46.3817V45.48H60.8925ZM37.0245 44.388L36.3174 45.0951L36.3174 45.0951L37.0245 44.388ZM37.0765 20.156L37.7836 20.8631L37.7836 20.8631L37.0765 20.156ZM59.6965 20.156L58.9811 20.8547L58.9893 20.8632L58.9978 20.8714L59.6965 20.156ZM61.9325 35.86V36.86H62.9325V35.86H61.9325ZM43.9925 35.86V34.86H42.9925V35.86H43.9925ZM44.5125 39.24L45.2196 38.5329L45.2196 38.5329L44.5125 39.24ZM60.8925 38.98H61.8925V37.8984L60.8142 37.9831L60.8925 38.98ZM46.0725 23.42C45.225 23.42 44.4057 23.6325 43.8054 24.2329C43.205 24.8332 42.9925 25.6525 42.9925 26.5H44.9925C44.9925 25.9608 45.1266 25.7401 45.2196 25.6471C45.3126 25.5541 45.5333 25.42 46.0725 25.42V23.42ZM42.9925 26.5V29.36H44.9925V26.5H42.9925ZM43.9925 30.36H52.8325V28.36H43.9925V30.36ZM53.8325 29.36V26.5H51.8325V29.36H53.8325ZM53.8325 26.5C53.8325 25.6525 53.62 24.8332 53.0196 24.2329C52.4193 23.6325 51.6 23.42 50.7525 23.42V25.42C51.2917 25.42 51.5124 25.5541 51.6054 25.6471C51.6984 25.7401 51.8325 25.9608 51.8325 26.5H53.8325ZM50.7525 23.42H46.0725V25.42H50.7525V23.42ZM60.7894 44.4853C54.1254 45.1759 48.0938 45.52 42.6925 45.52V47.52C48.1765 47.52 54.2783 47.1708 60.9956 46.4747L60.7894 44.4853ZM42.6925 45.52C40.551 45.52 38.9331 44.8824 37.7316 43.6809L36.3174 45.0951C37.9585 46.7362 40.1193 47.52 42.6925 47.52V45.52ZM37.7316 43.6809C36.5301 42.4794 35.8925 40.8615 35.8925 38.72H33.8925C33.8925 41.2932 34.6763 43.454 36.3174 45.0951L37.7316 43.6809ZM35.8925 38.72V26.24H33.8925V38.72H35.8925ZM35.8925 26.24C35.8925 23.8319 36.5613 22.0854 37.7836 20.8631L36.3694 19.4489C34.6797 21.1386 33.8925 23.4481 33.8925 26.24H35.8925ZM37.7836 20.8631C39.0449 19.6018 40.8121 18.92 43.2125 18.92V16.92C40.4129 16.92 38.0894 17.7289 36.3694 19.4489L37.7836 20.8631ZM43.2125 18.92H53.6125V16.92H43.2125V18.92ZM53.6125 18.92C56.014 18.92 57.7576 19.6021 58.9811 20.8547L60.4119 19.4573C58.7234 17.7286 56.411 16.92 53.6125 16.92V18.92ZM58.9978 20.8714C60.2504 22.0949 60.9325 23.8385 60.9325 26.24H62.9325C62.9325 23.4415 62.1239 21.1291 60.3952 19.4406L58.9978 20.8714ZM60.9325 26.24V35.86H62.9325V26.24H60.9325ZM61.9325 34.86H43.9925V36.86H61.9325V34.86ZM42.9925 35.86V37.94H44.9925V35.86H42.9925ZM42.9925 37.94C42.9925 38.7074 43.2589 39.4006 43.8054 39.9471L45.2196 38.5329C45.0727 38.386 44.9925 38.2126 44.9925 37.94H42.9925ZM43.8054 39.9471C44.3519 40.4936 45.0451 40.76 45.8125 40.76V38.76C45.5399 38.76 45.3665 38.6798 45.2196 38.5329L43.8054 39.9471ZM45.8125 40.76C49.2846 40.76 54.3427 40.4975 60.9708 39.9769L60.8142 37.9831C54.1997 38.5025 49.2044 38.76 45.8125 38.76V40.76ZM59.8925 38.98V45.48H61.8925V38.98H59.8925ZM65.2722 46H64.2722V47H65.2722V46ZM65.2722 34.544L64.4665 33.9517L64.2722 34.216V34.544H65.2722ZM80.3762 14L81.1819 14.5923L81.3762 14.328V14H80.3762ZM80.3762 12.464H81.3762V11.464H80.3762V12.464ZM67.4482 12.464L66.514 12.8209L66.7597 13.464H67.4482V12.464ZM65.2722 6.768H64.2722V6.95251L64.338 7.12487L65.2722 6.768ZM65.2722 1.2V0.199997H64.2722V1.2H65.2722ZM96.3762 1.2H97.3762V0.199997H96.3762V1.2ZM96.3762 12.72L97.1807 13.314L97.3762 13.0492V12.72H96.3762ZM81.2082 33.264L80.4037 32.67L80.2082 32.9348V33.264H81.2082ZM81.2082 34.8H80.2082V35.8H81.2082V34.8ZM96.9522 34.8H97.9522V33.8H96.9522V34.8ZM96.9522 46V47H97.9522V46H96.9522ZM66.2722 46V34.544H64.2722V46H66.2722ZM66.0779 35.1363L81.1819 14.5923L79.5705 13.4077L64.4665 33.9517L66.0779 35.1363ZM81.3762 14V12.464H79.3762V14H81.3762ZM80.3762 11.464H67.4482V13.464H80.3762V11.464ZM68.3823 12.1071L66.2063 6.41113L64.338 7.12487L66.514 12.8209L68.3823 12.1071ZM66.2722 6.768V1.2H64.2722V6.768H66.2722ZM65.2722 2.2H96.3762V0.199997H65.2722V2.2ZM95.3762 1.2V12.72H97.3762V1.2H95.3762ZM95.5717 12.126L80.4037 32.67L82.0127 33.858L97.1807 13.314L95.5717 12.126ZM80.2082 33.264V34.8H82.2082V33.264H80.2082ZM81.2082 35.8H96.9522V33.8H81.2082V35.8ZM95.9522 34.8V46H97.9522V34.8H95.9522ZM96.9522 45H65.2722V47H96.9522V45ZM114.818 12.464V11.464H113.818V12.464H114.818ZM114.818 20.848H113.818V21.848H114.818V20.848ZM120.386 20.848V21.848H121.386V20.848H120.386ZM120.386 12.464H121.386V11.464H120.386V12.464ZM114.818 32.048V31.048H113.818V32.048H114.818ZM114.818 46V47H115.818V46H114.818ZM100.802 46H99.8022V47H100.802V46ZM100.802 1.2V0.199997H99.8022V1.2H100.802ZM113.818 12.464V20.848H115.818V12.464H113.818ZM114.818 21.848H120.386V19.848H114.818V21.848ZM121.386 20.848V12.464H119.386V20.848H121.386ZM120.386 11.464H114.818V13.464H120.386V11.464ZM128.77 31.048H114.818V33.048H128.77V31.048ZM113.818 32.048V46H115.818V32.048H113.818ZM114.818 45H100.802V47H114.818V45ZM101.802 46V1.2H99.8022V46H101.802ZM100.802 2.2H128.77V0.199997H100.802V2.2ZM128.77 2.2C130.198 2.2 131.344 2.69013 132.13 3.46996C132.916 4.24948 133.402 5.3779 133.402 6.768H135.402C135.402 4.89409 134.737 3.23852 133.538 2.05003C132.341 0.861868 130.671 0.199997 128.77 0.199997V2.2ZM133.402 6.768V26.416H135.402V6.768H133.402ZM133.402 26.416C133.402 27.8073 132.915 28.9549 132.124 29.7517C131.335 30.5474 130.19 31.048 128.77 31.048V33.048C130.679 33.048 132.349 32.3646 133.544 31.1603C134.738 29.9571 135.402 28.2887 135.402 26.416H133.402ZM168.817 46V47H169.817V46H168.817ZM138.865 46H137.865V47H138.865V46ZM138.865 1.2V0.199997H137.865V1.2H138.865ZM168.817 1.2H169.817V0.199997H168.817V1.2ZM168.817 6.768L169.747 7.13397L169.817 6.95756V6.768H168.817ZM166.577 12.464V13.464H167.258L167.507 12.83L166.577 12.464ZM152.817 12.464V11.464H151.817V12.464H152.817ZM152.817 17.456H151.817V18.456H152.817V17.456ZM166.577 17.456H167.577V16.456H166.577V17.456ZM166.577 28.656V29.656H167.577V28.656H166.577ZM152.817 28.656V27.656H151.817V28.656H152.817ZM152.817 34.8H151.817V35.8H152.817V34.8ZM168.817 34.8H169.817V33.8H168.817V34.8ZM168.817 45H138.865V47H168.817V45ZM139.865 46V1.2H137.865V46H139.865ZM138.865 2.2H168.817V0.199997H138.865V2.2ZM167.817 1.2V6.768H169.817V1.2H167.817ZM167.886 6.40202L165.646 12.098L167.507 12.83L169.747 7.13397L167.886 6.40202ZM166.577 11.464H152.817V13.464H166.577V11.464ZM151.817 12.464V17.456H153.817V12.464H151.817ZM152.817 18.456H166.577V16.456H152.817V18.456ZM165.577 17.456V28.656H167.577V17.456H165.577ZM166.577 27.656H152.817V29.656H166.577V27.656ZM151.817 28.656V34.8H153.817V28.656H151.817ZM152.817 35.8H168.817V33.8H152.817V35.8ZM167.817 34.8V46H169.817V34.8H167.817ZM189.637 46L188.65 46.1587L188.785 47H189.637V46ZM186.181 24.496L187.169 24.3373L187.033 23.496H186.181V24.496ZM185.093 24.496V23.496H184.093V24.496H185.093ZM185.093 46V47H186.093V46H185.093ZM171.397 46H170.397V47H171.397V46ZM171.397 40.432L170.404 40.3153L170.397 40.3735V40.432H171.397ZM176.005 1.2V0.199997H175.116L175.012 1.08334L176.005 1.2ZM191.621 1.2L192.603 1.01141L192.447 0.199997H191.621V1.2ZM195.013 18.864L194.031 19.0526L194.187 19.864H195.013V18.864ZM195.973 18.864V19.864H196.799L196.955 19.0526L195.973 18.864ZM199.365 1.2V0.199997H198.539L198.383 1.01141L199.365 1.2ZM215.045 1.2L216.039 1.08494L215.936 0.199997H215.045V1.2ZM219.589 40.432H220.589V40.3743L220.583 40.3169L219.589 40.432ZM219.589 46V47H220.589V46H219.589ZM205.957 46H204.957V47H205.957V46ZM205.957 24.496H206.957V23.496H205.957V24.496ZM204.805 24.496V23.496H203.953L203.818 24.3373L204.805 24.496ZM201.349 46V47H202.201L202.337 46.1587L201.349 46ZM190.625 45.8413L187.169 24.3373L185.194 24.6547L188.65 46.1587L190.625 45.8413ZM186.181 23.496H185.093V25.496H186.181V23.496ZM184.093 24.496V46H186.093V24.496H184.093ZM185.093 45H171.397V47H185.093V45ZM172.397 46V40.432H170.397V46H172.397ZM172.39 40.5487L176.998 1.31665L175.012 1.08334L170.404 40.3153L172.39 40.5487ZM176.005 2.2H191.621V0.199997H176.005V2.2ZM190.639 1.38858L194.031 19.0526L195.995 18.6754L192.603 1.01141L190.639 1.38858ZM195.013 19.864H195.973V17.864H195.013V19.864ZM196.955 19.0526L200.347 1.38858L198.383 1.01141L194.991 18.6754L196.955 19.0526ZM199.365 2.2H215.045V0.199997H199.365V2.2ZM214.052 1.31505L218.596 40.5471L220.583 40.3169L216.039 1.08494L214.052 1.31505ZM218.589 40.432V46H220.589V40.432H218.589ZM219.589 45H205.957V47H219.589V45ZM206.957 46V24.496H204.957V46H206.957ZM205.957 23.496H204.805V25.496H205.957V23.496ZM203.818 24.3373L200.362 45.8413L202.337 46.1587L205.793 24.6547L203.818 24.3373ZM201.349 45H189.637V47H201.349V45Z" fill="black" fill-opacity="0.05" mask="url(#path-1-outside-1_2213_53)"/>
</svg>
