<svg width="72" height="70" viewBox="0 0 72 70" fill="none" xmlns="http://www.w3.org/2000/svg">
<g clip-path="url(#clip0_114_129)">
<path d="M47.4898 39.8731C47.6021 40.0115 47.7752 40.1002 47.9695 40.1002H49.9663V48.6767C49.9663 49.461 49.3191 50.0969 48.5209 50.0969H44.8513C44.0071 50.0969 43.323 50.77 43.323 51.5986V61.2371C43.323 62.0214 42.6758 62.6574 41.8777 62.6574H26.0971C25.2989 62.6574 24.6517 62.0214 24.6517 61.2371V38.5515C24.6517 36.8563 26.0511 35.4813 27.7764 35.4813H42.8231C42.2698 35.9191 41.7294 36.2656 41.2553 36.5143C41.201 36.66 41.1412 36.802 41.0739 36.9413C41.143 36.9675 41.2176 36.982 41.2958 36.982H45.8382C46.177 36.982 46.4514 36.7124 46.4514 36.3795V35.4813H48.5209C49.3191 35.4813 49.9663 36.1172 49.9663 36.9015V37.9056C49.1405 38.7704 48.2512 39.4335 47.4898 39.874V39.8731Z" fill="#FBBE48"/>
<path d="M49.9663 40.1011V48.6776C49.9663 49.4619 49.3191 50.0978 48.5209 50.0978H44.8513C44.0071 50.0978 43.323 50.7709 43.323 51.5995V61.238C43.323 62.0223 42.6758 62.6583 41.8776 62.6583H26.0971C25.2989 62.6583 24.6517 62.0223 24.6517 61.238V38.5524C24.6517 36.8572 26.0511 35.4822 27.7763 35.4822H42.8231C43.1518 35.2226 43.4841 34.9304 43.81 34.6083H27.7763C26.7038 34.6083 25.6957 35.019 24.938 35.7635C24.8358 35.8639 24.741 35.9679 24.6517 36.0756C24.4786 36.2846 24.3304 36.5089 24.2071 36.7441C23.9161 37.2959 23.7624 37.9128 23.7624 38.5524V61.238C23.7624 62.5036 24.8101 63.5321 26.0971 63.5321H41.8776C43.1656 63.5321 44.2124 62.5027 44.2124 61.238V51.5995C44.2124 51.253 44.4987 50.9717 44.8513 50.9717H48.5209C49.8089 50.9717 50.8556 49.9423 50.8556 48.6776V40.1011H49.9663ZM48.5209 35.4813C49.3191 35.4813 49.9663 36.1172 49.9663 36.9015V37.9056C50.2747 37.5827 50.5748 37.2308 50.8556 36.8526C50.8289 35.6106 49.7923 34.6074 48.5218 34.6074H46.4523V35.4813H48.5218H48.5209Z" fill="#010101"/>
<path d="M43.3221 51.6121C43.3221 52.486 37.8057 61.295 32.676 61.295V62.3036H43.3221C43.3221 62.3036 43.3221 49.6003 43.3221 51.6121Z" fill="#C2752B"/>
<path d="M33.1667 46.9019C33.1667 46.9019 35.4333 43.8895 36.2342 43.8895C37.0352 43.8895 43.5597 48.6776 49.9664 48.6776V36.7142H32.7938V46.9317L33.1667 46.9019Z" fill="#C2752B"/>
<path d="M62.7272 9.88459L66.0617 6.60811C66.0985 6.57193 66.0985 6.51404 66.0617 6.47876L60.2663 0.784279C60.2295 0.748095 60.1706 0.748095 60.1347 0.784279L0.798188 59.0887C0.761363 59.1249 0.761363 59.1827 0.798188 59.218L6.59356 64.9125C6.63038 64.9487 6.6893 64.9487 6.72521 64.9125L10.3534 61.3475C10.3866 61.3149 10.44 61.3113 10.4768 61.3402C16.2068 65.8081 23.3085 68.6512 31.0602 69.1596C53.4951 70.6314 72.1747 52.2779 70.6778 30.2336C70.1604 22.616 67.2668 15.637 62.7198 10.0067C62.6904 9.97052 62.6931 9.91806 62.7272 9.88549V9.88459ZM31.9818 61.4994C26.0041 61.1855 20.5015 59.1131 15.9987 55.8004L56.5893 15.9165C56.8499 15.6605 57.2826 15.6949 57.4962 15.9888C60.6272 20.3074 62.5771 25.5107 62.8828 31.1419C63.8108 48.2425 49.3845 62.414 31.9818 61.4985V61.4994Z" fill="#D81843"/>
<path d="M55.3944 50.798C55.0427 51.2051 54.6782 51.6049 54.3007 51.9957C48.8331 57.6621 41.4726 60.783 33.5754 60.783C33.0608 60.783 32.5388 60.7694 32.0233 60.7423C26.6689 60.461 21.5575 58.7241 17.1836 55.7082L23.0913 49.9033V48.8314L15.9988 55.8004C20.5006 59.114 26.0042 61.1855 31.9818 61.4994C32.5158 61.5275 33.047 61.541 33.5754 61.541C42.5636 61.541 50.6366 57.5273 56.0287 51.2322L55.3944 50.798ZM62.8828 31.1419C62.5772 25.5098 60.6273 20.3074 57.4962 15.988C57.3793 15.8269 57.1961 15.7437 57.012 15.7437C56.86 15.7437 56.7072 15.7998 56.5894 15.9156L47.5009 24.8458L47.9603 25.4655L56.988 16.5949C60.0565 20.8936 61.8268 25.9323 62.1122 31.1817C62.1389 31.6711 62.1528 32.1595 62.1537 32.6453L62.9242 32.7385C62.9242 32.2093 62.9114 31.6765 62.8819 31.1419H62.8828ZM60.9467 40.8094C60.5601 42.0677 60.0823 43.297 59.5161 44.4902L60.1476 44.9226C60.7672 43.6317 61.291 42.2884 61.7118 40.9025L60.9467 40.8103V40.8094ZM55.3944 50.798C55.0427 51.2051 54.6782 51.6049 54.3007 51.9957C48.8331 57.6621 41.4726 60.783 33.5754 60.783C33.0608 60.783 32.5388 60.7694 32.0233 60.7423C26.6689 60.461 21.5575 58.7241 17.1836 55.7082L23.0913 49.9033V48.8314L15.9988 55.8004C20.5006 59.114 26.0042 61.1855 31.9818 61.4994C32.5158 61.5275 33.047 61.541 33.5754 61.541C42.5636 61.541 50.6366 57.5273 56.0287 51.2322L55.3944 50.798ZM62.8828 31.1419C62.5772 25.5098 60.6273 20.3074 57.4962 15.988C57.3793 15.8269 57.1961 15.7437 57.012 15.7437C56.86 15.7437 56.7072 15.7998 56.5894 15.9156L47.5009 24.8458L47.9603 25.4655L56.988 16.5949C60.0565 20.8936 61.8268 25.9323 62.1122 31.1817C62.1389 31.6711 62.1528 32.1595 62.1537 32.6453L62.9242 32.7385C62.9242 32.2093 62.9114 31.6765 62.8819 31.1419H62.8828ZM60.9467 40.8094C60.5601 42.0677 60.0823 43.297 59.5161 44.4902L60.1476 44.9226C60.7672 43.6317 61.291 42.2884 61.7118 40.9025L60.9467 40.8103V40.8094ZM55.3944 50.798C55.0427 51.2051 54.6782 51.6049 54.3007 51.9957C48.8331 57.6621 41.4726 60.783 33.5754 60.783C33.0608 60.783 32.5388 60.7694 32.0233 60.7423C26.6689 60.461 21.5575 58.7241 17.1836 55.7082L23.0913 49.9033V48.8314L15.9988 55.8004C20.5006 59.114 26.0042 61.1855 31.9818 61.4994C32.5158 61.5275 33.047 61.541 33.5754 61.541C42.5636 61.541 50.6366 57.5273 56.0287 51.2322L55.3944 50.798ZM62.8828 31.1419C62.5772 25.5098 60.6273 20.3074 57.4962 15.988C57.3793 15.8269 57.1961 15.7437 57.012 15.7437C56.86 15.7437 56.7072 15.7998 56.5894 15.9156L47.5009 24.8458L47.9603 25.4655L56.988 16.5949C60.0565 20.8936 61.8268 25.9323 62.1122 31.1817C62.1389 31.6711 62.1528 32.1595 62.1537 32.6453L62.9242 32.7385C62.9242 32.2093 62.9114 31.6765 62.8819 31.1419H62.8828ZM60.9467 40.8094C60.5601 42.0677 60.0823 43.297 59.5161 44.4902L60.1476 44.9226C60.7672 43.6317 61.291 42.2884 61.7118 40.9025L60.9467 40.8103V40.8094ZM55.3944 50.798C55.0427 51.2051 54.6782 51.6049 54.3007 51.9957C48.8331 57.6621 41.4726 60.783 33.5754 60.783C33.0608 60.783 32.5388 60.7694 32.0233 60.7423C26.6689 60.461 21.5575 58.7241 17.1836 55.7082L23.0913 49.9033V48.8314L15.9988 55.8004C20.5006 59.114 26.0042 61.1855 31.9818 61.4994C32.5158 61.5275 33.047 61.541 33.5754 61.541C42.5636 61.541 50.6366 57.5273 56.0287 51.2322L55.3944 50.798ZM62.8828 31.1419C62.5772 25.5098 60.6273 20.3074 57.4962 15.988C57.3793 15.8269 57.1961 15.7437 57.012 15.7437C56.86 15.7437 56.7072 15.7998 56.5894 15.9156L47.5009 24.8458L47.9603 25.4655L56.988 16.5949C60.0565 20.8936 61.8268 25.9323 62.1122 31.1817C62.1389 31.6711 62.1528 32.1595 62.1537 32.6453L62.9242 32.7385C62.9242 32.2093 62.9114 31.6765 62.8819 31.1419H62.8828ZM60.9467 40.8094C60.5601 42.0677 60.0823 43.297 59.5161 44.4902L60.1476 44.9226C60.7672 43.6317 61.291 42.2884 61.7118 40.9025L60.9467 40.8103V40.8094ZM55.3944 50.798C55.0427 51.2051 54.6782 51.6049 54.3007 51.9957C48.8331 57.6621 41.4726 60.783 33.5754 60.783C33.0608 60.783 32.5388 60.7694 32.0233 60.7423C26.6689 60.461 21.5575 58.7241 17.1836 55.7082L23.0913 49.9033V48.8314L15.9988 55.8004C20.5006 59.114 26.0042 61.1855 31.9818 61.4994C32.5158 61.5275 33.047 61.541 33.5754 61.541C42.5636 61.541 50.6366 57.5273 56.0287 51.2322L55.3944 50.798ZM60.9467 40.8094C60.5601 42.0677 60.0823 43.297 59.5161 44.4902L60.1476 44.9226C60.7672 43.6317 61.291 42.2884 61.7118 40.9025L60.9467 40.8103V40.8094ZM62.8828 31.1419C62.5772 25.5098 60.6273 20.3074 57.4962 15.988C57.3793 15.8269 57.1961 15.7437 57.012 15.7437C56.86 15.7437 56.7072 15.7998 56.5894 15.9156L47.5009 24.8458L47.9603 25.4655L56.988 16.5949C60.0565 20.8936 61.8268 25.9323 62.1122 31.1817C62.1389 31.6711 62.1528 32.1595 62.1537 32.6453L62.9242 32.7385C62.9242 32.2093 62.9114 31.6765 62.8819 31.1419H62.8828ZM62.8828 31.1419C62.5772 25.5098 60.6273 20.3074 57.4962 15.988C57.3793 15.8269 57.1961 15.7437 57.012 15.7437C56.86 15.7437 56.7072 15.7998 56.5894 15.9156L47.5009 24.8458L47.9216 25.5044L56.9889 16.5949C60.0574 20.8936 61.8278 25.9323 62.1132 31.1817C62.1399 31.6711 62.1537 32.1595 62.1546 32.6453L62.9252 32.7385C62.9252 32.2093 62.9123 31.6765 62.8828 31.1419ZM59.5161 44.4902L60.1476 44.9226C60.7672 43.6317 61.291 42.2884 61.7118 40.9025L60.9467 40.8103C60.5601 42.0686 60.0823 43.2979 59.5161 44.4911V44.4902ZM54.3007 51.9957C48.8331 57.6621 41.4726 60.783 33.5754 60.783C33.0608 60.783 32.5388 60.7694 32.0233 60.7423C26.6689 60.461 21.5575 58.7241 17.1836 55.7082L23.0913 49.9033V48.8314L15.9988 55.8004C20.5006 59.114 26.0042 61.1855 31.9818 61.4994C32.5158 61.5275 33.047 61.541 33.5754 61.541C42.5636 61.541 50.6366 57.5273 56.0287 51.2322L55.3944 50.798C55.0427 51.2051 54.6782 51.6049 54.3007 51.9957ZM71.4474 30.183C71.1887 26.3692 70.3408 22.6404 68.9286 19.098C67.6305 15.8423 65.8712 12.7857 63.6967 10.004L66.6068 7.14456C66.9437 6.81347 66.9437 6.27433 66.6068 5.94324L60.8114 0.248766C60.6484 0.0886511 60.4312 0 60.2001 0C59.969 0 59.7527 0.0886511 59.5888 0.248766L39.4362 20.0505H40.5271L60.1347 0.784291C60.1531 0.766199 60.1771 0.757153 60.201 0.757153C60.2249 0.757153 60.2489 0.766199 60.2673 0.784291L66.0627 6.47877C66.0995 6.51405 66.0995 6.57194 66.0627 6.60813L62.7281 9.8846C62.695 9.91716 62.6913 9.96963 62.7208 10.0058C67.2687 15.6361 70.1613 22.6151 70.6787 30.2327C72.1195 51.4475 54.877 69.2419 33.581 69.2419C32.7478 69.2419 31.9054 69.2148 31.0612 69.1596C23.3095 68.6512 16.2068 65.8081 10.4777 61.3402C10.4612 61.3267 10.44 61.3203 10.4197 61.3203C10.3958 61.3203 10.3719 61.3294 10.3544 61.3466L6.72616 64.9116C6.70775 64.9297 6.68473 64.9387 6.65988 64.9387C6.63502 64.9387 6.612 64.9297 6.59359 64.9116L0.79822 59.2171C0.762316 59.1809 0.762316 59.123 0.79822 59.0878L23.0913 37.1828V36.1109L0.252286 58.5522C-0.084665 58.8833 -0.084665 59.4225 0.252286 59.7536L6.04766 65.448C6.21153 65.6091 6.42788 65.6968 6.65896 65.6968C6.89004 65.6968 7.1073 65.6081 7.27026 65.448L10.4741 62.3C13.305 64.4367 16.4158 66.1645 19.7282 67.44C23.3325 68.8276 27.1273 69.6608 31.0087 69.915C31.8631 69.971 32.7285 69.9991 33.58 69.9991C36.2572 69.9991 38.9326 69.7205 41.5325 69.1714C44.0633 68.6368 46.5481 67.8398 48.9187 66.804C51.2451 65.7873 53.4795 64.5308 55.5601 63.0707C57.6223 61.6234 59.5474 59.967 61.28 58.1461C63.0062 56.3333 64.5538 54.3458 65.8795 52.2408C67.2217 50.1096 68.3468 47.8408 69.2232 45.497C70.119 43.1025 70.7625 40.6094 71.1372 38.0865C71.522 35.4894 71.627 32.8299 71.4474 30.1821V30.183ZM62.1537 32.6462L62.9242 32.7394C62.9242 32.2102 62.9114 31.6774 62.8819 31.1428C62.5762 25.5107 60.6263 20.3083 57.4953 15.9889C57.3784 15.8278 57.1952 15.7446 57.011 15.7446C56.8591 15.7446 56.7063 15.8007 56.5885 15.9165L47.5 24.8467L47.9207 25.5053L56.988 16.5958C60.0565 20.8945 61.8268 25.9332 62.1122 31.1826C62.1389 31.672 62.1528 32.1604 62.1537 32.6462ZM60.1476 44.9226C60.7672 43.6317 61.291 42.2884 61.7118 40.9025L60.9467 40.8103C60.5601 42.0686 60.0823 43.2979 59.5161 44.4911L60.1476 44.9235V44.9226ZM23.0904 49.9033V48.8314L15.9978 55.8004C20.4997 59.114 26.0033 61.1855 31.9809 61.4994C32.5149 61.5275 33.0461 61.541 33.5745 61.541C42.5626 61.541 50.6357 57.5273 56.0278 51.2322L55.3935 50.798C55.0418 51.2051 54.6772 51.6049 54.2998 51.9957C48.8321 57.6621 41.4717 60.783 33.5745 60.783C33.0599 60.783 32.5379 60.7694 32.0223 60.7423C26.6679 60.461 21.5566 58.7241 17.1827 55.7082L23.0904 49.9033ZM55.3944 50.798C55.0427 51.2051 54.6782 51.6049 54.3007 51.9957C48.8331 57.6621 41.4726 60.783 33.5754 60.783C33.0608 60.783 32.5388 60.7694 32.0233 60.7423C26.6689 60.461 21.5575 58.7241 17.1836 55.7082L23.0913 49.9033V48.8314L15.9988 55.8004C20.5006 59.114 26.0042 61.1855 31.9818 61.4994C32.5158 61.5275 33.047 61.541 33.5754 61.541C42.5636 61.541 50.6366 57.5273 56.0287 51.2322L55.3944 50.798ZM60.9467 40.8094C60.5601 42.0677 60.0823 43.297 59.5161 44.4902L60.1476 44.9226C60.7672 43.6317 61.291 42.2884 61.7118 40.9025L60.9467 40.8103V40.8094ZM62.8828 31.1419C62.5772 25.5098 60.6273 20.3074 57.4962 15.988C57.3793 15.8269 57.1961 15.7437 57.012 15.7437C56.86 15.7437 56.7072 15.7998 56.5894 15.9156L47.5009 24.8458L47.9216 25.5044L56.9889 16.5949C60.0574 20.8936 61.8278 25.9323 62.1132 31.1817C62.1399 31.6711 62.1537 32.1595 62.1546 32.6453L62.9252 32.7385C62.9252 32.2093 62.9123 31.6765 62.8828 31.1419ZM55.3944 50.798C55.0427 51.2051 54.6782 51.6049 54.3007 51.9957C48.8331 57.6621 41.4726 60.783 33.5754 60.783C33.0608 60.783 32.5388 60.7694 32.0233 60.7423C26.6689 60.461 21.5575 58.7241 17.1836 55.7082L23.0913 49.9033V48.8314L15.9988 55.8004C20.5006 59.114 26.0042 61.1855 31.9818 61.4994C32.5158 61.5275 33.047 61.541 33.5754 61.541C42.5636 61.541 50.6366 57.5273 56.0287 51.2322L55.3944 50.798ZM62.8828 31.1419C62.5772 25.5098 60.6273 20.3074 57.4962 15.988C57.3793 15.8269 57.1961 15.7437 57.012 15.7437C56.86 15.7437 56.7072 15.7998 56.5894 15.9156L47.5009 24.8458L47.9216 25.5044L56.9889 16.5949C60.0574 20.8936 61.8278 25.9323 62.1132 31.1817C62.1399 31.6711 62.1537 32.1595 62.1546 32.6453L62.9252 32.7385C62.9252 32.2093 62.9123 31.6765 62.8828 31.1419ZM60.9467 40.8094C60.5601 42.0677 60.0823 43.297 59.5161 44.4902L60.1476 44.9226C60.7672 43.6317 61.291 42.2884 61.7118 40.9025L60.9467 40.8103V40.8094Z" fill="#010101"/>
<path d="M35.1994 29.5579C35.1046 29.5579 35.0098 29.5227 34.937 29.4512L32.6437 27.1978C32.4992 27.0558 32.4992 26.8251 32.6437 26.6822C32.7883 26.5402 33.023 26.5402 33.1685 26.6822L35.4618 28.9356C35.6063 29.0776 35.6063 29.3083 35.4618 29.4512C35.3891 29.5227 35.2942 29.5579 35.1994 29.5579Z" fill="#010101"/>
<path d="M29.1343 35.5183C29.0395 35.5183 28.9446 35.483 28.8719 35.4116L26.5786 33.1582C26.4341 33.0162 26.4341 32.7855 26.5786 32.6426C26.7232 32.5006 26.9579 32.5006 27.1034 32.6426L29.3967 34.896C29.5412 35.038 29.5412 35.2687 29.3967 35.4116C29.3239 35.483 29.2291 35.5183 29.1343 35.5183Z" fill="#010101"/>
<path d="M58.9857 5.26748C58.8872 5.26748 58.7887 5.23039 58.7132 5.15622L57.1261 3.59668C56.9751 3.44833 56.9751 3.20861 57.1261 3.06116C57.277 2.9128 57.521 2.9128 57.6711 3.06116L59.2582 4.62069C59.4092 4.76905 59.4092 5.00877 59.2582 5.15622C59.1827 5.23039 59.0842 5.26748 58.9857 5.26748Z" fill="#010101"/>
<path d="M52.9206 11.227C52.8221 11.227 52.7236 11.1899 52.6481 11.1158L51.0609 9.55621C50.9099 9.40786 50.9099 9.16814 51.0609 9.02069C51.2119 8.87234 51.4559 8.87234 51.6059 9.02069L53.1931 10.5802C53.3441 10.7286 53.3441 10.9683 53.1931 11.1158C53.1176 11.1899 53.0191 11.227 52.9206 11.227Z" fill="#010101"/>
<path d="M46.8555 17.1875C46.757 17.1875 46.6585 17.1504 46.583 17.0762L44.9958 15.5167C44.8448 15.3683 44.8448 15.1286 44.9958 14.9811C45.1468 14.8328 45.3908 14.8328 45.5408 14.9811L47.128 16.5407C47.279 16.689 47.279 16.9288 47.128 17.0762C47.0525 17.1504 46.954 17.1875 46.8555 17.1875Z" fill="#010101"/>
<path d="M22.5941 41.0265C22.4956 41.0265 22.3971 40.9894 22.3216 40.9152L20.7345 39.3557C20.5835 39.2073 20.5835 38.9676 20.7345 38.8201C20.8854 38.6718 21.1294 38.6718 21.2795 38.8201L22.8666 40.3797C23.0176 40.528 23.0176 40.7677 22.8666 40.9152C22.7911 40.9894 22.6926 41.0265 22.5941 41.0265Z" fill="#010101"/>
<path d="M16.529 46.986C16.4305 46.986 16.332 46.9489 16.2565 46.8747L14.6693 45.3152C14.5183 45.1668 14.5183 44.9271 14.6693 44.7797C14.8203 44.6313 15.0643 44.6313 15.2143 44.7797L16.8015 46.3392C16.9525 46.4876 16.9525 46.7273 16.8015 46.8747C16.726 46.9489 16.6275 46.986 16.529 46.986Z" fill="#010101"/>
<path d="M10.463 52.9455C10.3645 52.9455 10.2659 52.9084 10.1905 52.8343L8.60329 51.2747C8.45231 51.1264 8.45231 50.8866 8.60329 50.7392C8.75427 50.5908 8.99824 50.5908 9.1483 50.7392L10.7355 52.2987C10.8865 52.4471 10.8865 52.6868 10.7355 52.8343C10.66 52.9084 10.5615 52.9455 10.463 52.9455Z" fill="#010101"/>
<path d="M4.39784 58.905C4.29933 58.905 4.20082 58.8679 4.12533 58.7937L2.53816 57.2342C2.38718 57.0858 2.38718 56.8461 2.53816 56.6987C2.68915 56.5503 2.93312 56.5503 3.08318 56.6987L4.67035 58.2582C4.82133 58.4066 4.82133 58.6463 4.67035 58.7937C4.59485 58.8679 4.49635 58.905 4.39784 58.905Z" fill="#010101"/>
<path d="M35.3697 69.6201C35.157 69.6201 34.9839 69.45 34.9839 69.241V66.4169C34.9839 66.2079 35.157 66.0378 35.3697 66.0378C35.5824 66.0378 35.7554 66.2079 35.7554 66.4169V69.241C35.7554 69.45 35.5824 69.6201 35.3697 69.6201Z" fill="#010101"/>
<path d="M70.7625 33.1139H68.1506C67.938 33.1139 67.7649 32.9438 67.7649 32.7349C67.7649 32.5259 67.938 32.3558 68.1506 32.3558H70.7625C70.9751 32.3558 71.1482 32.5259 71.1482 32.7349C71.1482 32.9438 70.9751 33.1139 70.7625 33.1139Z" fill="#010101"/>
<path d="M57.4078 61.5085C57.2945 61.5085 57.1813 61.4596 57.1058 61.3656L55.4671 59.3383C55.3345 59.1746 55.3621 58.9358 55.5297 58.8064C55.6963 58.6762 55.9394 58.7033 56.071 58.868L57.7097 60.8952C57.8423 61.0589 57.8147 61.2977 57.6471 61.4271C57.5762 61.4823 57.4915 61.5094 57.4078 61.5094V61.5085Z" fill="#010101"/>
<path d="M13.8941 64.5371C13.8232 64.5371 13.7514 64.5181 13.687 64.4774C13.5075 64.3652 13.455 64.1309 13.5691 63.9545L15.183 61.466C15.2972 61.2896 15.5356 61.238 15.7151 61.3502C15.8947 61.4624 15.9471 61.6967 15.833 61.8731L14.2191 64.3616C14.1455 64.4747 14.0212 64.5371 13.8932 64.5371H13.8941Z" fill="#010101"/>
<path d="M63.5778 15.8504C63.4453 15.8504 63.3173 15.7835 63.2445 15.6632C63.1368 15.4831 63.1985 15.2507 63.3817 15.1448L65.6741 13.8214C65.8573 13.7155 66.0939 13.7762 66.2016 13.9562C66.3093 14.1362 66.2476 14.3687 66.0644 14.4745L63.7721 15.7979C63.7104 15.8332 63.6432 15.8504 63.5769 15.8504H63.5778Z" fill="#010101"/>
<path d="M61.7606 33.5988L55.9799 32.8L45.0622 31.2911L14.9373 27.1282L14.5267 27.0712V27.0721L14.1953 29.3716L14.1833 29.4566L14.1419 29.7461L14.0875 30.1215L14.0728 30.221L13.6815 32.9303L13.6548 33.113L13.9936 33.16L16.0034 33.4378L36.2563 36.2366L43.9482 37.2995L52.8949 38.5361L60.8869 39.6406C60.8869 39.6406 61.8904 39.7881 62.359 37.1539C62.3801 37.0345 62.4004 36.9105 62.4188 36.7794C62.4372 36.6482 62.4538 36.5234 62.4667 36.404C62.7622 33.7444 61.7587 33.597 61.7587 33.597L61.7606 33.5988ZM55.9643 33.1809C55.9054 33.9878 55.6872 34.7241 55.3926 35.3754L44.5972 33.8023L44.9931 31.6647L55.9643 33.1809ZM17.4442 33.2568C19.0691 33.0108 21.7306 32.4879 23.6188 31.5119L36.6559 33.4115L36.3106 35.8639L17.4442 33.2568ZM44.0191 36.9286L44.4601 34.5477L55.0234 36.0864C54.4388 37.0851 53.7216 37.816 53.288 38.2095L44.0191 36.9286Z" fill="#EA5A13"/>
<path d="M14.5147 29.6575C14.5073 29.6674 14.499 29.6765 14.4908 29.6864C14.4797 29.7 14.4677 29.7135 14.4567 29.7262C14.4392 29.7461 14.4208 29.766 14.4024 29.785L14.523 29.8022L14.5506 29.6122C14.5395 29.6267 14.5276 29.6421 14.5156 29.6566L14.5147 29.6575ZM14.5147 29.6575C14.5073 29.6674 14.499 29.6765 14.4908 29.6864C14.4797 29.7 14.4687 29.7135 14.4567 29.7262C14.4392 29.7461 14.4208 29.766 14.4024 29.785L14.523 29.8022L14.5506 29.6122C14.5395 29.6267 14.5276 29.6421 14.5156 29.6566L14.5147 29.6575ZM62.5974 33.8838C62.3019 33.322 61.8968 33.2361 61.8186 33.2243C61.8176 33.2243 61.8167 33.2243 61.8149 33.2243L14.6381 26.7048L14.581 26.6967C14.3702 26.6678 14.175 26.8116 14.1455 27.0187L14.1289 27.1354L14.0719 27.5298L13.8187 29.2884L13.8104 29.3463L13.7101 30.0383L13.6742 30.2853L13.3464 32.5531L13.2884 32.9575L13.2737 33.0615C13.2589 33.161 13.2856 33.2623 13.3473 33.3428C13.409 33.4233 13.5002 33.4758 13.6014 33.4903L13.6318 33.4948L60.8353 40.0179C60.8491 40.0197 60.874 40.0224 60.909 40.0233C61.0342 40.0242 61.2827 39.9944 61.5635 39.789C62.1665 39.3476 62.5836 38.3552 62.8027 36.84V36.8382C62.8027 36.8382 62.8027 36.8364 62.8027 36.8355C62.9951 35.503 62.9261 34.5098 62.5974 33.8847V33.8838ZM62.0386 36.7287C62.0202 36.859 61.9999 36.9829 61.9787 37.1005C61.7845 38.1843 61.5074 38.7225 61.2984 38.9857C61.1051 39.23 60.9541 39.2607 60.9237 39.2653L53.288 38.2096L44.0191 36.9287L36.3116 35.863L17.4451 33.256L14.1741 32.8037L14.0912 32.7928L14.4687 30.1776V30.1704L14.523 29.8031L14.5506 29.6131L14.5773 29.4286L14.8553 27.5L15.0054 27.5208L44.994 31.6648L55.9652 33.1809L61.6832 33.9715C61.7145 33.9851 61.8508 34.0611 61.9668 34.3496C62.0929 34.6626 62.208 35.2579 62.0883 36.3515C62.0754 36.4709 62.0588 36.5958 62.0404 36.7269C62.0404 36.7269 62.0404 36.7287 62.0404 36.7297L62.0386 36.7287ZM14.5147 29.6575C14.5073 29.6674 14.499 29.6765 14.4908 29.6864C14.4797 29.7 14.4677 29.7135 14.4567 29.7262C14.4392 29.7461 14.4208 29.766 14.4024 29.785L14.523 29.8022L14.5506 29.6122C14.5395 29.6267 14.5276 29.6421 14.5156 29.6566L14.5147 29.6575Z" fill="#010101"/>
<path d="M64.6163 40.2186L62.6618 39.9255C62.6618 39.9255 63.5824 39.0074 63.8706 37.067C64.1551 35.1474 63.4655 33.9108 63.4655 33.9108L65.5222 34.2193C66.9805 34.4382 67.9812 35.8675 67.7731 37.4352C67.7695 37.465 67.7649 37.494 67.7612 37.5247C67.7529 37.5844 67.7455 37.6423 67.7372 37.7002C67.5191 39.3086 66.1132 40.4439 64.6163 40.2195V40.2186Z" fill="#61AAB9"/>
<path d="M64.9671 40.594C64.8327 40.5931 64.6973 40.5823 64.5629 40.5624L62.6084 40.2693C62.4768 40.2494 62.3681 40.1589 62.3258 40.035C62.2834 39.9111 62.3166 39.7745 62.4096 39.6813C62.4169 39.6741 63.2547 38.8047 63.5199 37.0163C63.7822 35.2478 63.1599 34.0881 63.1544 34.0764C63.0908 33.9606 63.0991 33.8186 63.1765 33.7109C63.2538 33.6033 63.3854 33.5472 63.5189 33.5671L65.5756 33.8755C66.3784 33.9959 67.0845 34.4391 67.5642 35.1239C68.0374 35.7996 68.2362 36.6364 68.1239 37.4795L68.112 37.569C68.1037 37.6287 68.0963 37.6875 68.088 37.7445C67.9647 38.6509 67.4841 39.4732 66.7697 39.9997C66.2339 40.3941 65.606 40.5995 64.9671 40.5931V40.594ZM63.2998 39.6695L64.6697 39.8749C65.2543 39.9626 65.85 39.8097 66.3453 39.4443C66.9087 39.0291 67.2889 38.3759 67.3865 37.6532C67.3939 37.5962 67.4022 37.5383 67.4095 37.4786L67.4215 37.3899C67.6029 36.0195 66.7264 34.7512 65.4679 34.563L64.0207 34.3459C64.2066 34.924 64.4009 35.8892 64.2195 37.1167C64.0382 38.3407 63.6156 39.1838 63.2989 39.6695H63.2998Z" fill="#010101"/>
<path d="M13.5756 33.1203C13.5756 33.1203 14.9013 30.9763 13.7865 29.7995C15.0993 28.9663 14.5248 27.0667 14.5248 27.0667L5.58179 28.6144L13.5756 33.1203Z" fill="#FBBE48"/>
<path d="M13.572 33.4993C13.5084 33.4993 13.4431 33.4821 13.3842 33.4486L5.39032 28.9428C5.24946 28.8632 5.17397 28.7058 5.20251 28.5493C5.23013 28.3919 5.35533 28.2688 5.51552 28.2417L14.4585 26.6939C14.6519 26.6605 14.8388 26.7744 14.8949 26.959C14.9014 26.9807 15.056 27.5008 15.0339 28.1341C15.0081 28.8605 14.7633 29.4512 14.3195 29.8673C15.1637 31.2486 13.9614 33.2261 13.9062 33.3165C13.8334 33.435 13.7045 33.5002 13.5729 33.4984L13.572 33.4993ZM6.69669 28.8062L13.421 32.5956C13.7073 32.0076 14.1787 30.7683 13.5038 30.0572C13.4256 29.9749 13.3888 29.8637 13.4035 29.7524C13.4173 29.6411 13.4808 29.5416 13.5775 29.481C14.3425 28.9961 14.3057 28.0156 14.2256 27.5035L6.69761 28.8062H6.69669Z" fill="#010101"/>
<path d="M62.8027 36.8345C62.8027 36.8345 62.8027 36.8364 62.8027 36.8373V36.8391C62.7733 37.0272 62.6066 37.162 62.4188 37.1602C62.4013 37.1602 62.3829 37.1584 62.3654 37.1557H62.3617L61.9797 37.0996L55.0234 36.0864L44.4601 34.5477L36.6568 33.4106L23.6198 31.511L14.4733 30.1785H14.4687L14.0875 30.1224L14.0176 30.1124L13.85 30.088C13.7994 30.0808 13.7515 30.0636 13.7101 30.0392C13.5794 29.9632 13.5011 29.8148 13.525 29.6583C13.5379 29.5715 13.5803 29.4964 13.6401 29.4403C13.6595 29.4213 13.6815 29.4041 13.7055 29.3906C13.7377 29.3716 13.7727 29.3571 13.8095 29.3471C13.8583 29.3345 13.9099 29.3309 13.9623 29.339L14.1953 29.3734L14.2459 29.3806L14.5764 29.4286L14.6675 29.4421L44.5973 33.8023L55.3926 35.3754L62.0874 36.3506L62.4695 36.4058H62.4777C62.6877 36.4374 62.8331 36.6283 62.8027 36.8345Z" fill="#010101"/>
<path d="M8.60421 28.9491C8.60053 29.3272 8.47164 29.6755 8.25714 29.9559L6.14429 28.7655L8.50294 28.3575C8.57015 28.542 8.60605 28.741 8.60421 28.9491Z" fill="#010101"/>
<path d="M36.3005 33.4106L35.9479 35.8621L17.0897 33.1989C18.7156 32.9583 21.378 32.4427 23.269 31.472L36.3005 33.4097V33.4106Z" fill="#BD3818"/>
<path d="M56.1438 33.2089C56.0821 34.0158 55.8621 34.7512 55.5647 35.4017L44.7749 33.7969L45.1772 31.6602L56.1438 33.2089Z" fill="#BD3818"/>
<path d="M55.2231 36.1118C54.6348 37.1086 53.9158 37.8378 53.4813 38.2294L44.2161 36.9214L44.6644 34.5414L55.2231 36.1118Z" fill="#BD3818"/>
<path d="M28.6556 10.6598C28.6105 10.7304 28.5617 10.8018 28.5083 10.8787C28.4576 10.9511 28.4061 11.0208 28.3554 11.0877C28.3554 11.0886 28.3158 11.1383 28.3158 11.1383C28.2652 11.2044 28.2118 11.2695 28.1593 11.3319C28.1198 11.379 28.0802 11.4251 28.0406 11.4685C26.8889 12.7603 25.3698 13.4189 23.7615 14.1163C23.0526 14.4239 22.3198 14.7414 21.6219 15.1186C20.6516 15.6424 19.9059 16.1951 19.2743 16.8582C19.0414 17.1024 18.8297 17.372 18.6437 17.6596C18.432 17.9871 18.2524 18.3417 18.1097 18.7135C17.7378 19.6814 17.1624 21.0401 16.5345 22.0135C15.9904 22.8557 15.0671 23.5667 14.0645 23.9141C12.8925 24.3202 11.7095 24.2081 10.7346 23.6002C10.0008 23.1433 9.3306 22.3979 8.84635 21.5015C8.28384 20.4594 8.00489 19.2734 8.0408 18.0712C8.08315 16.6456 8.55359 15.2272 9.43923 13.854C10.6775 11.9362 12.4635 10.5051 14.7485 9.60052C16.633 8.85513 18.5157 8.58465 20.1093 8.41821C20.1545 8.41368 20.2005 8.40826 20.2456 8.40373L20.2603 8.40193C23.1428 8.06903 24.2301 7.0016 24.6214 6.39461C25.1424 5.58771 24.9961 4.79346 24.5947 4.45605C24.2568 4.172 23.7882 4.24708 23.3095 4.66049C23.1778 4.77447 22.9836 4.78623 22.8381 4.68943C22.6926 4.59264 22.6328 4.41082 22.6917 4.24799C22.6982 4.2308 22.7571 4.07249 22.8906 3.86534C23.1134 3.51978 23.5258 3.05934 24.2246 2.82957C25.0384 2.56181 26.0161 2.68393 27.131 3.19141C28.0931 3.63014 28.8231 4.39544 29.2429 5.40407C29.6121 6.29239 29.7244 7.35168 29.5596 8.38745C29.555 8.41911 29.5486 8.45258 29.5431 8.48515C29.5431 8.48786 29.5403 8.50143 29.5394 8.50505C29.5338 8.5349 29.5283 8.56566 29.5219 8.59551C29.5164 8.62446 29.5099 8.65341 29.5035 8.68235C29.5007 8.69592 29.4979 8.70768 29.4952 8.71854C29.4887 8.74658 29.4823 8.77462 29.4749 8.80266C29.4666 8.83433 29.4584 8.8687 29.4491 8.90308C29.4418 8.93202 29.4335 8.96097 29.4252 8.99082L29.4206 9.0062C29.4105 9.03967 29.4013 9.07224 29.3911 9.1048C29.381 9.13737 29.3709 9.16993 29.3598 9.2034C29.3368 9.27306 29.3138 9.33819 29.2908 9.40151C29.2558 9.4974 29.2162 9.5951 29.1757 9.68918C29.1619 9.72084 29.149 9.75159 29.1343 9.78235C29.1076 9.84296 29.0781 9.90538 29.0468 9.9687C29.033 9.99765 29.0174 10.0284 29.0017 10.0592C28.9888 10.0854 28.975 10.1116 28.9612 10.137C28.9612 10.137 28.9557 10.1478 28.9548 10.1487C28.9262 10.203 28.8995 10.2518 28.8728 10.2989C28.8655 10.3134 28.8572 10.3269 28.8498 10.3405C28.8498 10.3414 28.8093 10.4101 28.8084 10.412C28.7918 10.44 28.7752 10.4671 28.7587 10.4952L28.7099 10.5739C28.7071 10.5784 28.6988 10.5911 28.6988 10.5911C28.6841 10.6146 28.6694 10.6372 28.6546 10.6598H28.6556Z" fill="#61AAB9"/>
<path d="M9.76424 14.0566C12.4967 9.82308 17.2444 9.09849 20.149 8.79454C20.2005 8.78912 20.2521 8.78369 20.3027 8.77736C22.9173 8.47522 24.3268 7.55614 24.9454 6.59636C26.0576 4.87309 24.6232 3.01956 23.0535 4.37465C23.0535 4.37465 23.1005 4.24529 23.2156 4.06799C23.5783 3.50623 24.6168 2.46413 26.9672 3.53518C28.8342 4.38641 29.4759 6.45162 29.1767 8.32867C29.1721 8.35852 29.1665 8.38928 29.161 8.41913C29.1601 8.42366 29.1592 8.42908 29.1583 8.43361C29.1527 8.46255 29.1472 8.49241 29.1408 8.52135C29.1352 8.54849 29.1297 8.57472 29.1242 8.60096C29.1214 8.61181 29.1196 8.62267 29.1168 8.63352C29.1113 8.65976 29.1049 8.68599 29.0984 8.71132C29.091 8.74298 29.0828 8.77464 29.0745 8.8063C29.0662 8.83796 29.057 8.86872 29.0487 8.90038C29.0395 8.93114 29.0303 8.96189 29.0211 8.99356C29.0119 9.02431 29.0017 9.05507 28.9916 9.08583C28.9714 9.14734 28.9502 9.20885 28.9272 9.26946C28.8931 9.36082 28.8572 9.45128 28.8195 9.53994C28.8066 9.56979 28.7937 9.59874 28.7808 9.62859C28.755 9.68739 28.7274 9.74528 28.6998 9.80227C28.686 9.83122 28.6712 9.85926 28.6574 9.88821C28.6427 9.91625 28.628 9.94429 28.6142 9.97234C28.5884 10.0212 28.5626 10.0691 28.5359 10.1162C28.5285 10.1297 28.5212 10.1433 28.5129 10.1569C28.5009 10.1777 28.489 10.1985 28.477 10.2193C28.4613 10.2464 28.4457 10.2727 28.4291 10.2989C28.4162 10.3206 28.4024 10.3414 28.3895 10.3631C28.3849 10.3704 28.3803 10.3776 28.3757 10.3848C28.361 10.4084 28.3463 10.4319 28.3315 10.4545C28.2855 10.525 28.2395 10.5947 28.1916 10.6616C28.1446 10.7286 28.0968 10.7946 28.048 10.8579C28.036 10.8733 28.024 10.8896 28.0111 10.9059C27.9624 10.9683 27.9136 11.0289 27.8638 11.0886C27.827 11.1329 27.7893 11.1755 27.7525 11.2171C26.1478 13.0163 23.6823 13.5718 21.4378 14.7839C20.5688 15.2525 19.7338 15.8206 18.9936 16.5967C18.7413 16.8618 18.5158 17.1495 18.3187 17.4543C18.0904 17.8071 17.9008 18.1843 17.7498 18.5769C17.4211 19.4318 16.8393 20.8321 16.2096 21.8073C15.2457 23.3017 12.8695 24.4785 10.9417 23.2763C10.3056 22.8801 9.66389 22.2026 9.18701 21.3197C8.2185 19.5268 7.93311 16.8898 9.76424 14.053M9.11336 13.6505C8.18996 15.0815 7.69927 16.5642 7.65508 18.0595C7.61733 19.3277 7.91193 20.5788 8.50574 21.6779C9.02037 22.6314 9.73846 23.4265 10.5284 23.9186C11.6064 24.5898 12.9073 24.7147 14.1934 24.2696C14.7338 24.0823 15.265 23.7929 15.729 23.4328C16.1829 23.08 16.5741 22.6594 16.8605 22.2152C17.5058 21.2156 18.0923 19.8316 18.4706 18.8465C18.6041 18.4991 18.7717 18.168 18.9687 17.8623C19.1418 17.5945 19.3388 17.3439 19.5552 17.1169C20.1582 16.4837 20.8744 15.9536 21.8079 15.4506C22.491 15.0815 23.2165 14.7676 23.918 14.4628C25.4941 13.7789 27.1237 13.0724 28.3315 11.7182C28.373 11.6712 28.4153 11.6232 28.4567 11.5735C28.5129 11.5065 28.569 11.4378 28.6234 11.3672C28.6307 11.3582 28.6372 11.3491 28.6445 11.3392C28.6491 11.3329 28.6547 11.3265 28.6593 11.3202C28.6611 11.3184 28.663 11.3157 28.6648 11.3139C28.7191 11.2433 28.7725 11.1691 28.825 11.094C28.825 11.094 28.8259 11.0922 28.8268 11.0913C28.883 11.0108 28.9336 10.9357 28.9815 10.8616C28.9971 10.8371 29.0128 10.8118 29.0284 10.7874C29.0321 10.782 29.0358 10.7756 29.0395 10.7702V10.7684C29.0395 10.7684 29.0459 10.7593 29.0487 10.7548L29.0763 10.7096L29.0883 10.6906C29.0883 10.6906 29.0892 10.6888 29.0901 10.687C29.1067 10.6589 29.1242 10.6309 29.1408 10.6019V10.6001C29.1408 10.6001 29.1444 10.5956 29.1463 10.5929L29.1481 10.5902L29.1831 10.5305C29.1831 10.5305 29.1859 10.5269 29.1868 10.5241L29.1886 10.5214C29.1969 10.507 29.2052 10.4916 29.2135 10.4771C29.2411 10.4283 29.2687 10.3776 29.2982 10.3206C29.2982 10.3188 29.3 10.317 29.301 10.3152L29.3037 10.3088C29.3184 10.2808 29.3332 10.2528 29.347 10.2247C29.3636 10.1912 29.3801 10.1596 29.3949 10.1279C29.428 10.061 29.4584 9.99495 29.4869 9.93072C29.5016 9.89816 29.5155 9.8665 29.5302 9.83393C29.5735 9.73352 29.6149 9.6304 29.6526 9.52727C29.6775 9.45943 29.7023 9.39068 29.7263 9.3165C29.7383 9.27941 29.7493 9.24684 29.7594 9.21247C29.7714 9.17538 29.7815 9.1401 29.7907 9.10844C29.7916 9.10482 29.7926 9.1012 29.7935 9.09758L29.7953 9.09035C29.8045 9.05869 29.8137 9.02703 29.822 8.99537C29.8312 8.96189 29.8395 8.92752 29.8487 8.89043C29.8561 8.85967 29.8635 8.82982 29.8699 8.80088C29.8727 8.78821 29.8754 8.77645 29.8782 8.76379C29.8782 8.76379 29.8782 8.76198 29.8782 8.76107C29.8846 8.73122 29.8911 8.70046 29.8975 8.6679C29.9049 8.63443 29.9104 8.60277 29.9159 8.57292C29.9159 8.5693 29.9178 8.56568 29.9178 8.56206C29.9187 8.55754 29.9196 8.55301 29.9205 8.54759C29.927 8.5114 29.9325 8.47612 29.938 8.44265C30.1139 7.33994 29.9923 6.20919 29.5974 5.25754C29.1408 4.15845 28.3435 3.32441 27.2912 2.84497C26.0843 2.29497 25.0108 2.16833 24.1003 2.46775C23.2948 2.7328 22.8197 3.26199 22.5638 3.65911C22.4109 3.89612 22.3401 4.08156 22.3272 4.11684C22.2084 4.4425 22.329 4.80524 22.6199 4.99883C22.9109 5.19332 23.2984 5.16889 23.5627 4.94093C23.7505 4.77901 24.1012 4.53748 24.3424 4.74011C24.5809 4.94003 24.7236 5.52169 24.2936 6.18748C23.9392 6.73748 22.9366 7.70631 20.2134 8.02111L20.2005 8.02292C20.1563 8.02744 20.1112 8.03287 20.0661 8.03739C18.4467 8.20655 16.5309 8.48245 14.6031 9.24503C13.5103 9.67744 12.5188 10.2301 11.6571 10.8887C10.6563 11.6531 9.80015 12.5812 9.11244 13.6468L9.11336 13.6505Z" fill="#010101"/>
<path d="M43.4151 34.1795C46.3114 35.9842 49.0227 37.7916 51.4596 39.523C58.322 44.4006 62.9988 48.6776 63.4453 50.6035C63.5088 50.8767 63.4867 51.1019 63.3753 51.2756C62.1914 53.1111 51.3344 48.4316 39.1268 40.8238C35.3946 38.4981 28.7771 34.1795 21.4222 29.2522C20.9978 28.9681 20.5706 28.6813 20.1416 28.3928C19.453 27.9305 19.3241 26.9789 19.8728 26.3619C20.2898 25.8925 20.682 25.3795 21.0401 24.825C21.3771 24.3031 21.6671 23.7703 21.912 23.2329C22.2517 22.4875 23.176 22.199 23.8932 22.6124C24.9491 23.2212 25.9904 23.8236 27.0132 24.4171C33.9409 28.4389 39.9784 32.0356 43.4161 34.1777L43.4151 34.1795Z" fill="#29306C"/>
<path d="M18.7477 20.7154C17.8879 20.4052 16.9185 20.71 16.4195 21.4825L16.1948 21.8308L16.1773 21.858L15.9527 22.2062C15.4537 22.9797 15.5863 23.9711 16.239 24.6034L17.9155 26.1747C18.6373 26.6243 19.627 26.3629 20.1259 25.5894L20.7115 24.683L20.7289 24.6559L21.3145 23.7495C21.8134 22.976 21.6321 21.9846 20.9103 21.535L18.7496 20.7145L18.7477 20.7154Z" fill="#61AAB9"/>
<path d="M18.6907 26.7726C18.35 26.7726 18.0103 26.6831 17.7074 26.4949L17.6752 26.475L15.9665 24.8739C15.5872 24.5066 15.3432 24.0199 15.2797 23.5043C15.2153 22.9824 15.3377 22.4496 15.6259 22.0045L16.0936 21.2808C16.3808 20.8357 16.819 20.4992 17.3272 20.3337C17.8289 20.1709 18.3813 20.1799 18.8812 20.3599L18.8877 20.3617L21.0843 21.1958L21.1165 21.2157C21.5584 21.4907 21.8539 21.9312 21.9497 22.455C22.0427 22.967 21.9331 23.4989 21.6404 23.953L20.4527 25.793C20.0467 26.4226 19.3673 26.7736 18.6925 26.7736L18.6907 26.7726ZM18.1502 25.8726C18.6888 26.1838 19.4216 25.9712 19.7991 25.3868L20.9867 23.5468C21.1764 23.2528 21.2482 22.9127 21.1883 22.588C21.1331 22.2876 20.972 22.0352 20.7308 21.8742L18.6115 21.07C17.909 20.8176 17.1412 21.07 16.7444 21.6861L16.2768 22.4097C15.88 23.0249 15.9739 23.8146 16.506 24.332L18.1502 25.8735V25.8726Z" fill="#010101"/>
<path d="M27.8629 11.0904C27.9126 11.0316 27.9614 10.971 28.0102 10.9077C27.9614 10.9701 27.9126 11.0307 27.8629 11.0904Z" fill="#FBBE48"/>
<path d="M28.0471 10.8607C28.0949 10.7964 28.1437 10.7313 28.1907 10.6644C28.1437 10.7313 28.0959 10.7973 28.0471 10.8607Z" fill="#FBBE48"/>
<path d="M28.6989 9.80405C28.7265 9.74616 28.7541 9.68827 28.7799 9.63037C28.7541 9.68917 28.7265 9.74706 28.6989 9.80405Z" fill="#D81843"/>
<path d="M28.9898 9.09308C28.9695 9.15278 28.9493 9.21249 28.9272 9.27219C28.8931 9.36356 28.8572 9.45402 28.8195 9.54267C28.8066 9.57252 28.7937 9.60147 28.7808 9.63132C28.755 9.69012 28.7274 9.74801 28.6998 9.805C28.686 9.83395 28.6712 9.86199 28.6574 9.89094C28.6427 9.91898 28.628 9.94702 28.6141 9.97507C28.5884 10.0239 28.5626 10.0719 28.5359 10.1189C28.5285 10.1325 28.5212 10.146 28.5129 10.1596C28.5009 10.1804 28.4889 10.2012 28.477 10.222C28.4613 10.2492 28.4457 10.2754 28.4291 10.3016C28.4162 10.3233 28.4024 10.3441 28.3895 10.3659C28.3849 10.3731 28.3803 10.3803 28.3757 10.3876C28.361 10.4111 28.3462 10.4346 28.3315 10.4572C28.2855 10.5278 28.2395 10.5974 28.1916 10.6644C28.1446 10.7313 28.0958 10.7964 28.048 10.8607C28.036 10.8761 28.024 10.8923 28.0111 10.9086C27.9623 10.971 27.9135 11.0316 27.8638 11.0913C27.827 11.1357 27.7893 11.1782 27.7524 11.2198C26.1478 13.0191 23.6823 13.5745 21.4378 14.7867C20.8762 14.5795 20.7188 14.3624 20.6912 14.1878C20.6829 14.1326 20.6774 14.0811 20.6737 14.0322C20.7078 14.0214 20.7428 14.0105 20.7768 13.9996C23.4181 13.1909 28.0424 11.6187 28.9898 9.09308Z" fill="#A61830"/>
<path d="M29.1776 8.32959C29.173 8.35944 29.1675 8.3902 29.162 8.42005C29.161 8.42457 29.1601 8.43 29.1592 8.43452C29.1537 8.46347 29.1482 8.49332 29.1417 8.52227C29.1362 8.54941 29.1307 8.57564 29.1251 8.60187C29.1224 8.61273 29.1205 8.62358 29.1178 8.63444C29.1122 8.66067 29.1058 8.6869 29.0994 8.71223C29.092 8.74389 29.0837 8.77556 29.0754 8.80722C29.0671 8.83888 29.0579 8.86963 29.0496 8.9013C29.0404 8.93205 29.0312 8.96281 29.022 8.99356C29.0128 9.02432 29.0027 9.05508 28.9926 9.08583C28.9926 9.08764 28.9916 9.08945 28.9907 9.09126C28.0434 11.6169 23.4191 13.19 20.7778 13.9978C20.7428 14.0087 20.7087 14.0195 20.6747 14.0304C20.6783 14.0783 20.6839 14.1308 20.6922 14.186C20.7189 14.3606 20.8772 14.5777 21.4388 14.7848C20.5697 15.2534 19.7347 15.8215 18.9945 16.5977C18.4495 17.1694 18.0325 17.846 17.7507 18.5778C17.4221 19.4327 16.8402 20.833 16.2105 21.8082C15.2466 23.3026 12.8705 24.4795 10.9427 23.2772C10.3065 22.881 9.66484 22.2035 9.18795 21.3206C8.21945 19.5277 7.93405 16.8907 9.76519 14.0539C12.4976 9.82037 17.2453 9.09579 20.1499 8.79184C20.2015 8.78641 20.253 8.78098 20.3036 8.77465C27.6153 7.92975 25.4978 2.26241 23.0545 4.37285C23.0545 4.37285 23.8748 2.12311 26.9681 3.53338C28.8351 4.38461 29.4768 6.44982 29.1776 8.32687V8.32959Z" fill="#FBBE48"/>
<path d="M29.1776 8.3296C29.173 8.35945 29.1675 8.39021 29.162 8.42006C29.161 8.42458 29.1601 8.43001 29.1592 8.43453C29.1537 8.46348 29.1482 8.49333 29.1417 8.52228C29.1362 8.54942 29.1307 8.57565 29.1251 8.60188C29.1224 8.61274 29.1205 8.62359 29.1178 8.63445C29.1123 8.66068 29.1058 8.68692 29.0994 8.71225C29.092 8.74391 29.0837 8.77557 29.0754 8.80723C29.0671 8.83889 29.0579 8.86965 29.0496 8.90131C29.0404 8.93206 29.0312 8.96282 29.022 8.99358C29.0128 9.02433 29.0027 9.05509 28.9926 9.08585C28.9723 9.14736 28.9511 9.20887 28.9281 9.26948C28.9502 9.20978 28.9705 9.15098 28.9907 9.09037C28.0434 11.616 23.4191 13.1891 20.7778 13.9969C20.7428 14.0078 20.7087 14.0186 20.6747 14.0295C20.6259 13.3103 21.123 13.3194 21.0972 12.8499C21.0604 12.1959 20.7354 11.9851 18.6097 12.0249C17.806 12.0394 17.4755 12.0918 17.2149 11.8458C16.9544 11.6006 16.8946 11.1827 16.97 10.8652C17.0409 10.5667 17.2545 10.2591 18.3897 9.64489C18.8647 9.38798 19.5073 9.07318 20.3046 8.77557C27.6162 7.93067 25.4988 2.26333 23.0554 4.37377C23.0554 4.37377 23.8757 2.12402 26.969 3.5343C28.8361 4.38553 29.4777 6.45074 29.1785 8.32779L29.1776 8.3296Z" fill="#D81843"/>
<path d="M16.623 16.898C17.6633 15.5094 19.0111 14.5614 20.6728 14.0322C20.6765 14.0802 20.682 14.1326 20.6903 14.1878C20.717 14.3624 20.8753 14.5795 21.4369 14.7867C20.5679 15.2553 19.7328 15.8233 18.9927 16.5995C18.4476 17.1712 18.0306 17.8478 17.7489 18.5797C17.4202 19.4345 16.8384 20.8348 16.2087 21.81C15.2448 23.3044 12.8686 24.4813 10.9408 23.2791C10.3047 22.8829 9.66298 22.2053 9.1861 21.3224C10.0948 21.6716 13.1393 22.531 15.0901 19.3251C15.6222 18.4512 16.182 17.4842 16.622 16.8971L16.623 16.898Z" fill="#C2752B"/>
<path d="M27.8629 11.0904C27.9126 11.0316 27.9614 10.971 28.0102 10.9077C27.9614 10.9701 27.9126 11.0307 27.8629 11.0904Z" fill="#C2752B"/>
<path d="M28.0471 10.8607C28.0949 10.7964 28.1437 10.7313 28.1907 10.6644C28.1437 10.7313 28.0959 10.7973 28.0471 10.8607Z" fill="#C2752B"/>
<path d="M46.4836 41.7511C58.7215 51.7931 63.4453 50.6044 63.4453 50.6044C63.5088 50.8776 63.4867 51.1029 63.3753 51.2765C62.1914 53.112 51.3344 48.4325 39.1268 40.8248C35.3946 38.499 28.7771 34.1805 21.4222 29.2531C24.5155 29.2015 27.2737 26.6071 27.7478 24.8884C34.6756 28.9102 39.9775 32.0384 43.4161 34.1805C46.3124 35.9851 49.0236 37.7925 51.4605 39.5239C51.4605 39.5239 49.762 41.5168 46.4845 41.752L46.4836 41.7511Z" fill="#222146"/>
<path d="M63.7003 51.4791C63.309 52.0852 62.3341 52.2082 60.7193 51.8573C59.3264 51.5542 57.4787 50.9083 55.2287 49.9386C50.631 47.9575 44.8393 44.8339 38.9188 41.145C35.1027 38.7677 28.3149 34.3306 21.2031 29.566C20.7786 29.2811 20.3515 28.9952 19.9225 28.7067C19.5008 28.4235 19.2228 27.9757 19.1583 27.4782C19.0948 26.9843 19.2486 26.4868 19.5809 26.1132C20.3763 25.2185 21.0622 24.1674 21.5584 23.0791C21.7646 22.6268 22.1587 22.2804 22.6402 22.1293C23.1226 21.9773 23.6501 22.0352 24.0865 22.2867C25.1811 22.9181 26.2306 23.5251 27.2074 24.0923C33.9787 28.0237 40.1147 31.6747 43.6204 33.8593C46.4597 35.6287 49.1728 37.4307 51.6842 39.2154C55.0906 41.6362 58.0071 43.9447 60.1209 45.8932C62.3378 47.9358 63.5815 49.4926 63.82 50.5194C63.9074 50.8957 63.8669 51.2186 63.6994 51.4782L63.7003 51.4791ZM20.0688 26.7364C19.9455 26.9273 19.8948 27.1525 19.9243 27.3841C19.9611 27.6673 20.1195 27.9215 20.3588 28.0816C20.7879 28.3692 21.215 28.656 21.6394 28.94C28.7449 33.7001 35.5244 38.1308 39.334 40.5045C45.2223 44.1736 50.9781 47.2773 55.5408 49.2439C60.908 51.5569 62.787 51.4819 63.0503 51.073C63.1166 50.9698 63.0982 50.807 63.0706 50.6885C62.6582 48.9092 58.0117 44.6467 51.235 39.8306C48.7364 38.0548 46.0371 36.261 43.2098 34.4997C39.7096 32.3187 33.5819 28.6723 26.8171 24.7454C25.8412 24.1782 24.7917 23.5712 23.698 22.9407C23.4503 22.7978 23.1502 22.7652 22.8768 22.8512C22.6006 22.938 22.3824 23.1289 22.2645 23.3894C21.737 24.5473 21.0097 25.6618 20.1637 26.6134C20.1287 26.6523 20.0974 26.6939 20.0698 26.7364H20.0688Z" fill="#010101"/>
<path d="M32.6898 22.4106V25.0186C32.6898 29.2331 29.0367 31.8854 27.6447 32.3042H32.4716C32.4568 32.3242 32.4412 32.3431 32.4246 32.3621C32.2221 32.5937 31.922 32.7412 31.5868 32.7412H27.595C27.2323 32.7412 26.91 32.5693 26.7093 32.3042C26.5722 32.1242 26.4911 31.8999 26.4911 31.6575V22.4106C26.4911 20.7289 27.8785 19.3648 29.5909 19.3648C31.3033 19.3648 32.6907 20.728 32.6907 22.4106H32.6898Z" fill="#FBBE48"/>
<path d="M33.5358 21.8317C33.4115 21.0049 33.023 20.2414 32.4108 19.6389C31.6568 18.8989 30.6552 18.491 29.59 18.491C28.5248 18.491 27.5232 18.8989 26.7692 19.6389C26.0161 20.3798 25.6009 21.364 25.6009 22.4106V31.6575C25.6009 31.9035 25.6469 32.1387 25.7316 32.3549C25.7878 32.4997 25.8605 32.6362 25.948 32.7611C26.0575 32.9185 26.1901 33.0587 26.3402 33.1781C26.6826 33.4513 27.119 33.615 27.5941 33.615H31.5859C32.0573 33.615 32.49 33.454 32.8315 33.1844C32.8343 33.1826 32.8371 33.1799 32.8398 33.1781C32.9963 33.0533 33.1335 32.9058 33.2449 32.7412C33.337 32.6064 33.4115 32.4598 33.4668 32.3043C33.5395 32.1016 33.5791 31.8836 33.5791 31.6575V22.4106C33.5791 22.2152 33.5643 22.0216 33.5358 21.8317ZM26.4902 22.4106C26.4902 20.729 27.8776 19.3648 29.59 19.3648C31.3024 19.3648 32.6897 20.7281 32.6897 22.4106V31.6575C32.6897 31.8999 32.6087 32.1242 32.4716 32.3043C32.4568 32.3242 32.4412 32.3432 32.4246 32.3622C32.2221 32.5937 31.9219 32.7412 31.5868 32.7412H27.595C27.2322 32.7412 26.91 32.5693 26.7093 32.3043C26.5722 32.1242 26.4911 31.8999 26.4911 31.6575V22.4106H26.4902Z" fill="#010101"/>
<path d="M37.2156 32.3052H38.9989C39.2704 32.3052 39.5319 32.3468 39.7777 32.4246V32.7132H33.5791V24.247C33.5791 22.5653 34.9665 21.2012 36.6789 21.2012C38.3912 21.2012 39.7786 22.5644 39.7786 24.247V27.0974C39.635 29.3498 38.4538 31.1229 37.2165 32.3043L37.2156 32.3052Z" fill="#FBBE48"/>
<path d="M39.4997 21.4753C38.7457 20.7353 37.744 20.3273 36.6789 20.3273C35.6137 20.3273 34.612 20.7353 33.858 21.4753C33.743 21.5883 33.6352 21.7078 33.5367 21.8317C32.988 22.5183 32.6898 23.3605 32.6898 24.247V32.7132C32.6898 32.7231 32.6898 32.7331 32.6898 32.7421C32.6944 32.9031 32.7441 33.0515 32.8269 33.179C32.8269 33.1817 32.8297 33.1836 32.8315 33.1854C32.989 33.4269 33.2652 33.587 33.5791 33.587H39.7777C39.7823 33.587 39.7878 33.587 39.7924 33.587C39.8817 33.5861 39.9673 33.5716 40.0484 33.5463C40.2003 33.4984 40.3347 33.4124 40.4378 33.2984C40.54 33.1872 40.6136 33.0506 40.6468 32.8986C40.6606 32.8389 40.667 32.7765 40.667 32.7132V24.247C40.667 23.1994 40.2518 22.2161 39.4987 21.4753H39.4997ZM36.6789 21.2012C38.3903 21.2012 39.7786 22.5644 39.7786 24.247V32.7132H33.58V24.247C33.58 22.5653 34.9674 21.2012 36.6798 21.2012H36.6789Z" fill="#010101"/>
<path d="M46.4514 27.2267V30.2616C45.9542 32.0392 44.9231 33.5037 43.8091 34.6064C43.4832 34.9294 43.1509 35.2207 42.8222 35.4803C42.2689 35.9181 41.7285 36.2646 41.2544 36.5133C41.2001 36.659 41.1402 36.801 41.073 36.9403C40.9626 36.8987 40.8668 36.8254 40.7987 36.7323C40.7729 36.6979 40.7508 36.6599 40.7333 36.6201C40.7002 36.5459 40.6818 36.4645 40.6818 36.3795V27.2258C40.6818 25.6608 41.9734 24.3917 43.5661 24.3917C45.1588 24.3917 46.4504 25.6608 46.4504 27.2258L46.4514 27.2267Z" fill="#FBBE48"/>
<path d="M46.2359 24.6042C45.5233 23.9041 44.5751 23.5178 43.567 23.5178C42.5589 23.5178 41.6107 23.9041 40.8981 24.6042C40.8171 24.6839 40.7397 24.7662 40.6679 24.8521C40.1017 25.5179 39.7933 26.3492 39.7933 27.2267V36.3804C39.7933 36.5948 39.8403 36.7983 39.9241 36.9828C39.9397 37.0172 39.9563 37.0498 39.9738 37.0823C40.0493 37.2189 40.1459 37.3429 40.2592 37.4487C40.366 37.5491 40.4875 37.6342 40.621 37.7002C40.8235 37.8006 41.0528 37.8576 41.2958 37.8576H45.8382C46.0619 37.8576 46.2755 37.8096 46.4661 37.7228C46.9825 37.4885 47.3407 36.9756 47.3407 36.3813V27.2276C47.3407 26.2371 46.9476 25.3053 46.235 24.6052L46.2359 24.6042ZM41.2958 36.9828C41.2176 36.9828 41.1421 36.9684 41.0739 36.9421C40.9635 36.9005 40.8677 36.8272 40.7996 36.7341C40.7738 36.6997 40.7517 36.6617 40.7342 36.6219C40.7011 36.5477 40.6827 36.4663 40.6827 36.3813V27.2276C40.6827 25.6626 41.9743 24.3935 43.567 24.3935C45.1597 24.3935 46.4513 25.6626 46.4513 27.2276V36.3813C46.4513 36.7142 46.177 36.9837 45.8382 36.9837H41.2958V36.9828Z" fill="#010101"/>
<path d="M52.6951 31.0197V31.52C52.6951 33.6394 51.907 35.436 50.8556 36.8526C50.5748 37.2307 50.2756 37.5826 49.9663 37.9055C49.1405 38.7703 48.2512 39.4334 47.4898 39.874C47.406 39.7708 47.3563 39.6406 47.3563 39.4986V31.0197C47.3563 29.6293 48.5034 28.5022 49.9184 28.5022H50.1329C51.548 28.5022 52.6951 29.6293 52.6951 31.0197Z" fill="#FBBE48"/>
<path d="M52.5735 28.6207C51.9217 27.9802 51.0545 27.6274 50.1329 27.6274H49.9184C48.9959 27.6274 48.1296 27.9802 47.4778 28.6207C47.4309 28.6668 47.3848 28.7139 47.3416 28.7627C47.1004 29.0269 46.907 29.3227 46.7634 29.6393C46.5692 30.0681 46.467 30.5357 46.467 31.0188V39.4976C46.467 39.7826 46.5498 40.0495 46.6925 40.2756C46.745 40.3588 46.8067 40.4366 46.8748 40.5081C47.1492 40.7948 47.5386 40.974 47.9694 40.974H52.0819C52.9105 40.974 53.5844 40.3118 53.5844 39.4976V31.0188C53.5844 30.1124 53.2253 29.2612 52.5735 28.6207ZM52.695 39.4985C52.695 39.8314 52.4207 40.101 52.0819 40.101H47.9694C47.7752 40.101 47.6021 40.0124 47.4898 39.874C47.406 39.7708 47.3563 39.6406 47.3563 39.4985V31.0197C47.3563 29.6293 48.5034 28.5022 49.9184 28.5022H50.1329C51.5479 28.5022 52.695 29.6293 52.695 31.0197V39.4985Z" fill="#010101"/>
<path d="M32.6898 25.0195V31.6584C32.6898 31.9008 32.6088 32.1251 32.4716 32.3051H27.6447C29.0367 31.8863 32.6898 29.234 32.6898 25.0195Z" fill="#C2752B"/>
<path d="M39.7777 27.0974V32.4246C39.5319 32.3468 39.2704 32.3052 38.9988 32.3052H37.2156C38.4529 31.1237 39.6341 29.3507 39.7777 27.0983V27.0974Z" fill="#C2752B"/>
<path d="M46.4513 30.2617V36.3795C46.4513 36.7124 46.177 36.982 45.8382 36.982H41.2958C41.2175 36.982 41.142 36.9675 41.0739 36.9412C41.1402 36.8028 41.201 36.6599 41.2553 36.5143C41.7294 36.2655 42.2707 35.919 42.8231 35.4812C43.1518 35.2216 43.4841 34.9294 43.81 34.6074C44.9231 33.5038 45.9551 32.0392 46.4522 30.2626L46.4513 30.2617Z" fill="#C2752B"/>
<path d="M52.6951 31.52V39.4986C52.6951 39.8315 52.4207 40.101 52.0819 40.101H47.9695C47.7752 40.101 47.6021 40.0124 47.4898 39.874C48.2512 39.4334 49.1405 38.7704 49.9663 37.9056C50.2747 37.5826 50.5748 37.2307 50.8556 36.8526C51.9079 35.436 52.6951 33.6394 52.6951 31.52Z" fill="#C2752B"/>
<path d="M32.7634 46.7164V39.3574H36.4938C39.0448 39.3574 41.1126 37.3257 41.1126 34.819C41.1126 33.672 40.1662 32.7421 38.9988 32.7421H26.2352C25.1148 32.7421 24.2061 33.6349 24.2061 34.7358V49.66L32.7625 46.7164H32.7634Z" fill="#FBBE48"/>
<path d="M41.5573 34.8191C41.5573 35.0434 41.5425 35.265 41.5122 35.4821C41.4634 35.8394 41.3759 36.1859 41.2544 36.5152C41.2001 36.6608 41.1402 36.8029 41.073 36.9422C41.0666 36.9557 41.0601 36.9693 41.0528 36.9829C40.9285 37.2343 40.7839 37.4741 40.6201 37.7002C39.7013 38.9676 38.1933 39.7953 36.4929 39.7953H33.2081V46.7164C33.2081 46.9579 33.0092 47.1533 32.7634 47.1533C32.5176 47.1533 32.3187 46.9579 32.3187 46.7164V39.3575C32.3187 39.1159 32.5176 38.9205 32.7634 38.9205H36.4938C37.9447 38.9205 39.2253 38.1887 39.9738 37.0815C39.9959 37.0489 40.018 37.0163 40.0391 36.982C40.0419 36.9783 40.0437 36.9747 40.0465 36.9702C40.3282 36.5233 40.5243 36.0195 40.6136 35.4803C40.6495 35.265 40.6679 35.0434 40.6679 34.8173C40.6679 34.7458 40.6633 34.6752 40.6541 34.6056C40.598 34.1786 40.3733 33.8023 40.0493 33.5445C39.9692 33.4802 39.8836 33.4242 39.7933 33.3753C39.5567 33.2496 39.287 33.1781 38.9998 33.1781H26.2361C25.3624 33.1781 24.6517 33.8765 24.6517 34.7349V51.7568C24.6517 51.9984 24.4529 52.1938 24.2071 52.1938C23.9612 52.1938 23.7624 51.9984 23.7624 51.7568V34.7349C23.7624 33.5644 24.6085 32.5847 25.7316 32.3549C25.8946 32.3215 26.063 32.3043 26.2352 32.3043H38.9988C39.2704 32.3043 39.5319 32.3459 39.7777 32.4237C39.7823 32.4246 39.7878 32.4264 39.7924 32.4282C40.1091 32.5295 40.3982 32.6905 40.6468 32.8977C40.6587 32.9067 40.6707 32.9167 40.6817 32.9275C41.1669 33.3446 41.491 33.9389 41.5471 34.6065C41.5536 34.6761 41.5563 34.7467 41.5563 34.8182L41.5573 34.8191Z" fill="#010101"/>
</g>
<defs>
<clipPath id="clip0_114_129">
<rect width="71.533" height="70" fill="white"/>
</clipPath>
</defs>
</svg>
