<svg width="90" height="14" viewBox="0 0 90 14" fill="none" xmlns="http://www.w3.org/2000/svg">
<path d="M83.5981 7.67229H84.8423L84.4535 3.62847H83.9869L83.5981 7.67229ZM80.6819 0.206787H87.7585L89.6638 12.1244V13.8158H85.4061L85.1534 11.0745H83.287L83.0148 13.8158H78.7766V12.1244L80.6819 0.206787Z" fill="white"/>
<path d="M73.8877 6.5058H74.2377L73.6739 1.89819V0.206787H77.601V13.8158H73.0906L71.0881 7.5362H70.7576L71.302 12.1244V13.8158H67.3943V0.206787H71.9047L73.8877 6.5058Z" fill="white"/>
<path d="M60.1699 7.67229H61.4141L61.0253 3.62847H60.5587L60.1699 7.67229ZM57.2536 0.206787H64.3303L66.2356 12.1244V13.8158H61.9779L61.7252 11.0745H59.8588L59.5866 13.8158H55.3484V12.1244L57.2536 0.206787Z" fill="white"/>
<path d="M50.1048 3.62847H48.4134V6.1753H50.1048V3.62847ZM44.1558 0.206787H52.6711C53.6626 0.206787 54.3625 0.906678 54.3625 1.89819V7.24458C54.3625 7.88614 53.8765 8.60547 53.2349 8.78045L54.5764 12.1244V13.8158H50.4159L49.2689 9.57754H48.4134V13.8158H44.1558V0.206787Z" fill="white"/>
<path d="M42.9831 13.8158H33.8845V0.206787H42.9831V1.89819L42.3026 3.62847H38.1227V5.1449H42.3026V8.54715H38.1227V10.4135H42.9831V13.8158Z" fill="white"/>
<path d="M26.5799 8.54715V10.4135H28.2713V8.54715H26.5799ZM28.2713 5.1449V3.62847H26.5799V5.1449H28.2713ZM30.8182 13.8158H22.3223V0.206787H30.8182C31.8291 0.206787 32.529 0.906678 32.529 1.89819V5.02826C32.529 6.01977 31.7125 6.66133 30.7793 6.66133V7.03072C31.7125 7.03072 32.529 7.67229 32.529 8.68324V12.1244C32.529 13.1159 31.8291 13.8158 30.8182 13.8158Z" fill="white"/>
<path d="M16.5001 3.62847H14.8087V10.4135H16.5001V3.62847ZM19.0469 13.8158H12.2619C11.2509 13.8158 10.551 13.1159 10.551 12.1244V1.89819C10.551 0.906678 11.2509 0.206787 12.2619 0.206787H19.0469C20.0579 0.206787 20.7578 0.906678 20.7578 1.89819V12.1244C20.7578 13.1159 20.0579 13.8158 19.0469 13.8158Z" fill="white"/>
<path d="M1.43659 7.0696C0.503406 6.42804 0.289551 5.84479 0.289551 4.75608V1.89819C0.289551 0.906678 0.989441 0.206787 2.00039 0.206787H9.38813V1.87875L8.72712 3.62847H4.54722V4.2506L8.24108 6.71966C9.17427 7.34178 9.38813 7.94447 9.38813 9.03318V12.1244C9.38813 13.1159 8.68824 13.8158 7.69673 13.8158H0.289551V10.4135H5.13046V9.51922L1.43659 7.0696Z" fill="white"/>
</svg>
