<svg width="163" height="32" viewBox="0 0 163 32" fill="none" xmlns="http://www.w3.org/2000/svg">
<g clip-path="url(#clip0_114_122)">
<path d="M9.8063 24.1098V24.6098H10.3063H20.7743V31.3518H4.5364C3.51017 31.3518 2.67237 30.9971 2.09244 30.4192C1.5125 29.8414 1.1604 29.0107 1.1604 28.0027V4.7329C1.1604 3.7249 1.5125 2.89417 2.09244 2.31635C2.67237 1.73854 3.51017 1.38379 4.5364 1.38379H20.7743V4.64L19.432 8.16957H10.3063H9.8063V8.66957V24.1098Z" fill="white" stroke="#010101"/>
<path d="M35.2229 24.1098V24.6098H35.7229H46.2345V31.3518H26.6206V1.38379H46.2345V4.63853L44.8522 8.16957H35.7229H35.2229V8.66957V12.1205V12.6205H35.7229H44.6934V19.3625H35.7229H35.2229V19.8625V24.1098Z" fill="white" stroke="#010101"/>
<path d="M61.1678 24.1098V24.6098H61.6678H72.0029V31.3518H51.1998V24.0961L61.4984 10.027L61.5949 9.89509V9.73164V8.66957V8.16957H61.0949H52.542L51.1998 4.64102V1.38379H71.6065V8.68276L61.2649 22.7516L61.1678 22.8837V23.0477V24.1098Z" fill="white" stroke="#010101"/>
<path d="M96.091 1.40479H96.187C97.1695 1.42621 97.9732 1.77661 98.535 2.33631C99.1149 2.91412 99.467 3.74486 99.467 4.75286V18.3358C99.467 19.3444 99.1144 20.1876 98.5321 20.777C97.9506 21.3657 97.1132 21.7286 96.091 21.7286H86.4887H85.9887V22.2286V31.3728H77.3417V1.40479H96.091ZM90.3211 14.9866H90.8211V14.4866V8.69161V8.19161H90.3211H86.4887H85.9887V8.69161V14.4866V14.9866H86.4887H90.3211Z" fill="white" stroke="#010101"/>
<path d="M114.356 24.1308V24.6308H114.856H125.367V31.3728H105.752V1.40479H125.367V4.65844L123.984 8.19056H114.856H114.356V8.69056V12.1415V12.6415H114.856H123.825V19.3835H114.856H114.356V19.8835V24.1308Z" fill="white" stroke="#010101"/>
<path d="M162.5 28.0524V31.3728H154.118V17.0079V16.5079H153.618H152.825H152.399L152.331 16.9289L150.02 31.3728H142.811L140.5 16.9289L140.433 16.5079H140.007H139.258H138.758V17.0079V31.3728H130.331V28.0528L133.448 1.40479H143.337L145.595 13.2089L145.672 13.615H146.086H146.747H147.16L147.238 13.2089L149.494 1.40479H159.427L162.5 28.0524Z" fill="white" stroke="#010101"/>
</g>
<defs>
<clipPath id="clip0_114_122">
<rect width="162.34" height="30.9889" fill="white" transform="translate(0.6604 0.883789)"/>
</clipPath>
</defs>
</svg>
